<svg width="32" height="32" viewBox="0 0 32 32" fill="none" xmlns="http://www.w3.org/2000/svg">
<circle cx="16" cy="16" r="16" fill="#11112D"/>
<path d="M22.875 22.875H9.125C8.76033 22.875 8.41059 22.7301 8.15273 22.4723C7.89487 22.2144 7.75 21.8647 7.75 21.5V11.875C7.75 11.5103 7.89487 11.1606 8.15273 10.9027C8.41059 10.6449 8.76033 10.5 9.125 10.5H11.8745L13.2495 8.4375H18.7495L20.1245 10.5H22.875C23.2397 10.5 23.5894 10.6449 23.8473 10.9027C24.1051 11.1606 24.25 11.5103 24.25 11.875V21.5C24.25 21.8647 24.1051 22.2144 23.8473 22.4723C23.5894 22.7301 23.2397 22.875 22.875 22.875Z" stroke="#FEDC00" stroke-width="1.5" stroke-linecap="round" stroke-linejoin="round"/>
<path d="M16 19.4375C17.7086 19.4375 19.0938 18.0524 19.0938 16.3438C19.0938 14.6351 17.7086 13.25 16 13.25C14.2914 13.25 12.9062 14.6351 12.9062 16.3438C12.9062 18.0524 14.2914 19.4375 16 19.4375Z" stroke="#FEDC00" stroke-width="1.5" stroke-linecap="round" stroke-linejoin="round"/>
</svg>
