<svg width="188" height="121" viewBox="0 0 188 121" fill="none" xmlns="http://www.w3.org/2000/svg">
<path d="M121.349 43.8678H89.2327C88.5828 43.8678 88.0557 43.3406 88.0557 42.6907C88.0557 42.0408 88.5828 41.5137 89.2327 41.5137H121.349C121.999 41.5137 122.526 42.0408 122.526 42.6907C122.526 43.3406 121.999 43.8678 121.349 43.8678Z" fill="#FEDC00"/>
<path d="M137.301 43.8678H128.276C127.626 43.8678 127.099 43.3406 127.099 42.6907C127.099 42.0408 127.626 41.5137 128.276 41.5137H137.301C137.951 41.5137 138.479 42.0408 138.479 42.6907C138.479 43.3406 137.951 43.8678 137.301 43.8678Z" fill="#FEDC00"/>
<path d="M85.1406 22.772H53.0247C52.3748 22.772 51.8477 22.2449 51.8477 21.595C51.8477 20.9451 52.3748 20.418 53.0247 20.418H85.1406C85.7905 20.418 86.3176 20.9451 86.3176 21.595C86.3176 22.2449 85.7905 22.772 85.1406 22.772Z" fill="#FEDC00"/>
<path d="M101.093 33.3209H70.6565C70.0066 33.3209 69.4795 32.7937 69.4795 32.1438C69.4795 31.4939 70.0066 30.9668 70.6565 30.9668H101.093C101.743 30.9668 102.27 31.4939 102.27 32.1438C102.27 32.7937 101.743 33.3209 101.093 33.3209Z" fill="#FEDC00"/>
<path d="M63.73 33.3209H53.0247C52.3748 33.3209 51.8477 32.7937 51.8477 32.1438C51.8477 31.4939 52.3748 30.9668 53.0247 30.9668H63.73C64.3799 30.9668 64.907 31.4939 64.907 32.1438C64.907 32.7937 64.3799 33.3209 63.73 33.3209Z" fill="#FEDC00"/>
<path d="M101.093 22.772H92.0677C91.4177 22.772 90.8906 22.2449 90.8906 21.595C90.8906 20.9451 91.4177 20.418 92.0677 20.418H101.093C101.743 20.418 102.27 20.9451 102.27 21.595C102.27 22.2449 101.743 22.772 101.093 22.772Z" fill="#FEDC00"/>
<path d="M56.0638 28.1277C63.8311 28.1277 70.1277 21.8311 70.1277 14.0638C70.1277 6.29659 63.8311 0 56.0638 0C48.2966 0 42 6.29659 42 14.0638C42 21.8311 48.2966 28.1277 56.0638 28.1277Z" fill="#EA425B"/>
<path d="M61.5478 20.7939C61.2288 20.7939 60.9097 20.6721 60.6666 20.429L49.699 9.46136C49.2123 8.97467 49.2123 8.1857 49.699 7.699C50.1857 7.21231 50.9747 7.21231 51.4614 7.699L62.429 18.6666C62.9157 19.1533 62.9157 19.9423 62.429 20.429C62.1859 20.6721 61.8669 20.7939 61.5478 20.7939Z" fill="white"/>
<path d="M50.5802 20.7939C50.2611 20.7939 49.9421 20.6721 49.699 20.429C49.2123 19.9423 49.2123 19.1533 49.699 18.6666L60.6666 7.699C61.1533 7.21231 61.9423 7.21231 62.429 7.699C62.9157 8.1857 62.9157 8.97467 62.429 9.46136L51.4614 20.429C51.2178 20.6726 50.8992 20.7939 50.5802 20.7939Z" fill="white"/>
<path d="M146.231 74.7872C146.231 73.6304 145.78 72.5431 144.962 71.725L124.339 51.1019C122.957 49.7198 120.865 49.4698 119.226 50.3504L113.892 45.017C115.608 43.1023 116.964 40.9321 117.93 38.5509C119.013 35.8813 119.561 33.0602 119.561 30.1667C119.561 27.2731 119.013 24.4526 117.93 21.7824C116.808 19.0176 115.162 16.5373 113.035 14.411C110.908 12.2842 108.429 10.6378 105.664 9.51645C102.994 8.43359 100.173 7.88477 97.2796 7.88477C94.386 7.88477 91.5655 8.43359 88.8953 9.51645C86.1305 10.6378 83.6502 12.2842 81.5239 14.411C81.0372 14.8977 81.0372 15.6867 81.5239 16.1734C82.0106 16.6601 82.7996 16.6601 83.2862 16.1734C91.0023 8.45775 103.557 8.45775 111.272 16.1734C118.988 23.889 118.988 36.4439 111.272 44.1595C103.557 51.8751 91.0023 51.8751 83.2862 44.1595C81.8124 42.6856 80.5895 41.0071 79.6506 39.1698C79.3375 38.5569 78.5865 38.3138 77.9735 38.6269C77.3606 38.94 77.1175 39.691 77.4306 40.3039C78.4883 42.3735 79.8651 44.2636 81.5234 45.9219C83.6502 48.0486 86.13 49.6951 88.8948 50.8164C91.5645 51.8993 94.3855 52.4481 97.2791 52.4481C100.173 52.4481 102.993 51.8993 105.663 50.8164C108.045 49.8509 110.214 48.4949 112.129 46.7789L117.463 52.1123C116.582 53.7519 116.832 55.8436 118.214 57.2258L138.837 77.8489C139.655 78.667 140.743 79.1172 141.9 79.1172C143.056 79.1172 144.144 78.6665 144.962 77.8489C145.78 77.0308 146.23 75.9436 146.23 74.7867L146.231 74.7872ZM143.199 76.087C142.482 76.804 141.317 76.804 140.6 76.087L119.977 55.4639C119.26 54.7474 119.26 53.5813 119.977 52.8643C120.335 52.5058 120.806 52.3268 121.277 52.3268C121.747 52.3268 122.218 52.5058 122.576 52.8643L143.199 73.4874C143.547 73.8345 143.738 74.2961 143.738 74.7872C143.738 75.2784 143.547 75.7399 143.199 76.087Z" fill="#3A4561"/>
<path d="M1.824 114V102.8H2.8L10.528 112.528H10.016V102.8H11.184V114H10.208L2.496 104.272H3.008V114H1.824ZM18.4636 114.08C17.653 114.08 16.9223 113.899 16.2716 113.536C15.6316 113.163 15.125 112.656 14.7516 112.016C14.3783 111.365 14.1916 110.624 14.1916 109.792C14.1916 108.949 14.3783 108.208 14.7516 107.568C15.125 106.928 15.6316 106.427 16.2716 106.064C16.9116 105.701 17.6423 105.52 18.4636 105.52C19.2956 105.52 20.0316 105.701 20.6716 106.064C21.3223 106.427 21.829 106.928 22.1916 107.568C22.565 108.208 22.7516 108.949 22.7516 109.792C22.7516 110.624 22.565 111.365 22.1916 112.016C21.829 112.656 21.3223 113.163 20.6716 113.536C20.021 113.899 19.285 114.08 18.4636 114.08ZM18.4636 113.072C19.0716 113.072 19.6103 112.939 20.0796 112.672C20.549 112.395 20.917 112.011 21.1836 111.52C21.461 111.019 21.5996 110.443 21.5996 109.792C21.5996 109.131 21.461 108.555 21.1836 108.064C20.917 107.573 20.549 107.195 20.0796 106.928C19.6103 106.651 19.077 106.512 18.4796 106.512C17.8823 106.512 17.349 106.651 16.8796 106.928C16.4103 107.195 16.037 107.573 15.7596 108.064C15.4823 108.555 15.3436 109.131 15.3436 109.792C15.3436 110.443 15.4823 111.019 15.7596 111.52C16.037 112.011 16.4103 112.395 16.8796 112.672C17.349 112.939 17.877 113.072 18.4636 113.072ZM28.1669 114.08C27.3775 114.08 26.7695 113.867 26.3429 113.44C25.9162 113.013 25.7029 112.411 25.7029 111.632V103.744H26.8389V111.568C26.8389 112.059 26.9615 112.437 27.2069 112.704C27.4629 112.971 27.8255 113.104 28.2949 113.104C28.7962 113.104 29.2122 112.96 29.5429 112.672L29.9429 113.488C29.7189 113.691 29.4469 113.84 29.1269 113.936C28.8175 114.032 28.4975 114.08 28.1669 114.08ZM24.1989 106.544V105.6H29.3989V106.544H24.1989ZM36.7389 105.52C37.4215 105.52 38.0189 105.653 38.5309 105.92C39.0535 106.176 39.4589 106.571 39.7469 107.104C40.0455 107.637 40.1949 108.309 40.1949 109.12V114H39.0589V109.232C39.0589 108.347 38.8349 107.68 38.3869 107.232C37.9495 106.773 37.3309 106.544 36.5309 106.544C35.9335 106.544 35.4109 106.667 34.9629 106.912C34.5255 107.147 34.1842 107.493 33.9389 107.952C33.7042 108.4 33.5869 108.944 33.5869 109.584V114H32.4509V102.128H33.5869V107.904L33.3629 107.472C33.6295 106.864 34.0562 106.389 34.6429 106.048C35.2295 105.696 35.9282 105.52 36.7389 105.52ZM43.7034 114V105.6H44.8394V114H43.7034ZM44.2794 103.744C44.0447 103.744 43.8474 103.664 43.6874 103.504C43.5274 103.344 43.4474 103.152 43.4474 102.928C43.4474 102.704 43.5274 102.517 43.6874 102.368C43.8474 102.208 44.0447 102.128 44.2794 102.128C44.514 102.128 44.7114 102.203 44.8714 102.352C45.0314 102.501 45.1114 102.688 45.1114 102.912C45.1114 103.147 45.0314 103.344 44.8714 103.504C44.722 103.664 44.5247 103.744 44.2794 103.744ZM52.7283 105.52C53.4109 105.52 54.0083 105.653 54.5203 105.92C55.0429 106.176 55.4483 106.571 55.7363 107.104C56.0349 107.637 56.1843 108.309 56.1843 109.12V114H55.0483V109.232C55.0483 108.347 54.8243 107.68 54.3763 107.232C53.9389 106.773 53.3203 106.544 52.5203 106.544C51.9229 106.544 51.4003 106.667 50.9523 106.912C50.5149 107.147 50.1736 107.493 49.9283 107.952C49.6936 108.4 49.5763 108.944 49.5763 109.584V114H48.4403V105.6H49.5283V107.904L49.3523 107.472C49.6189 106.864 50.0456 106.389 50.6323 106.048C51.2189 105.696 51.9176 105.52 52.7283 105.52ZM63.2767 117.184C62.5087 117.184 61.7727 117.072 61.0687 116.848C60.3647 116.624 59.7941 116.304 59.3567 115.888L59.9327 115.024C60.3274 115.376 60.8127 115.653 61.3887 115.856C61.9754 116.069 62.5941 116.176 63.2447 116.176C64.3114 116.176 65.0954 115.925 65.5967 115.424C66.0981 114.933 66.3488 114.165 66.3488 113.12V111.024L66.5087 109.584L66.3967 108.144V105.6H67.4847V112.976C67.4847 114.427 67.1274 115.488 66.4128 116.16C65.7087 116.843 64.6634 117.184 63.2767 117.184ZM63.0687 113.68C62.2687 113.68 61.5487 113.509 60.9087 113.168C60.2687 112.816 59.7621 112.331 59.3887 111.712C59.0261 111.093 58.8447 110.384 58.8447 109.584C58.8447 108.784 59.0261 108.08 59.3887 107.472C59.7621 106.853 60.2687 106.373 60.9087 106.032C61.5487 105.691 62.2687 105.52 63.0687 105.52C63.8154 105.52 64.4874 105.675 65.0847 105.984C65.6821 106.293 66.1567 106.752 66.5087 107.36C66.8607 107.968 67.0367 108.709 67.0367 109.584C67.0367 110.459 66.8607 111.2 66.5087 111.808C66.1567 112.416 65.6821 112.88 65.0847 113.2C64.4874 113.52 63.8154 113.68 63.0687 113.68ZM63.1807 112.672C63.7994 112.672 64.3487 112.544 64.8287 112.288C65.3087 112.021 65.6874 111.659 65.9647 111.2C66.2421 110.731 66.3807 110.192 66.3807 109.584C66.3807 108.976 66.2421 108.443 65.9647 107.984C65.6874 107.525 65.3087 107.168 64.8287 106.912C64.3487 106.645 63.7994 106.512 63.1807 106.512C62.5727 106.512 62.0234 106.645 61.5327 106.912C61.0527 107.168 60.6741 107.525 60.3967 107.984C60.1301 108.443 59.9967 108.976 59.9967 109.584C59.9967 110.192 60.1301 110.731 60.3967 111.2C60.6741 111.659 61.0527 112.021 61.5327 112.288C62.0234 112.544 62.5727 112.672 63.1807 112.672ZM78.3694 114.08C77.58 114.08 76.972 113.867 76.5454 113.44C76.1187 113.013 75.9054 112.411 75.9054 111.632V103.744H77.0414V111.568C77.0414 112.059 77.164 112.437 77.4094 112.704C77.6654 112.971 78.028 113.104 78.4974 113.104C78.9987 113.104 79.4147 112.96 79.7454 112.672L80.1454 113.488C79.9214 113.691 79.6494 113.84 79.3294 113.936C79.02 114.032 78.7 114.08 78.3694 114.08ZM74.4014 106.544V105.6H79.6014V106.544H74.4014ZM85.7805 114.08C84.9698 114.08 84.2392 113.899 83.5885 113.536C82.9485 113.163 82.4418 112.656 82.0685 112.016C81.6952 111.365 81.5085 110.624 81.5085 109.792C81.5085 108.949 81.6952 108.208 82.0685 107.568C82.4418 106.928 82.9485 106.427 83.5885 106.064C84.2285 105.701 84.9592 105.52 85.7805 105.52C86.6125 105.52 87.3485 105.701 87.9885 106.064C88.6392 106.427 89.1458 106.928 89.5085 107.568C89.8818 108.208 90.0685 108.949 90.0685 109.792C90.0685 110.624 89.8818 111.365 89.5085 112.016C89.1458 112.656 88.6392 113.163 87.9885 113.536C87.3378 113.899 86.6018 114.08 85.7805 114.08ZM85.7805 113.072C86.3885 113.072 86.9272 112.939 87.3965 112.672C87.8658 112.395 88.2338 112.011 88.5005 111.52C88.7778 111.019 88.9165 110.443 88.9165 109.792C88.9165 109.131 88.7778 108.555 88.5005 108.064C88.2338 107.573 87.8658 107.195 87.3965 106.928C86.9272 106.651 86.3938 106.512 85.7965 106.512C85.1992 106.512 84.6658 106.651 84.1965 106.928C83.7272 107.195 83.3538 107.573 83.0765 108.064C82.7992 108.555 82.6605 109.131 82.6605 109.792C82.6605 110.443 82.7992 111.019 83.0765 111.52C83.3538 112.011 83.7272 112.395 84.1965 112.672C84.6658 112.939 85.1938 113.072 85.7805 113.072ZM99.7112 114.08C99.0179 114.08 98.3619 113.984 97.7432 113.792C97.1246 113.589 96.6392 113.339 96.2872 113.04L96.7992 112.144C97.1406 112.4 97.5779 112.624 98.1112 112.816C98.6446 112.997 99.2046 113.088 99.7912 113.088C100.591 113.088 101.167 112.965 101.519 112.72C101.871 112.464 102.047 112.128 102.047 111.712C102.047 111.403 101.946 111.163 101.743 110.992C101.551 110.811 101.295 110.677 100.975 110.592C100.655 110.496 100.298 110.416 99.9032 110.352C99.5086 110.288 99.1139 110.213 98.7192 110.128C98.3352 110.043 97.9832 109.92 97.6632 109.76C97.3432 109.589 97.0819 109.36 96.8792 109.072C96.6872 108.784 96.5912 108.4 96.5912 107.92C96.5912 107.461 96.7192 107.051 96.9752 106.688C97.2312 106.325 97.6046 106.043 98.0952 105.84C98.5966 105.627 99.2046 105.52 99.9192 105.52C100.463 105.52 101.007 105.595 101.551 105.744C102.095 105.883 102.543 106.069 102.895 106.304L102.399 107.216C102.026 106.96 101.626 106.779 101.199 106.672C100.773 106.555 100.346 106.496 99.9192 106.496C99.1619 106.496 98.6019 106.629 98.2392 106.896C97.8872 107.152 97.7112 107.483 97.7112 107.888C97.7112 108.208 97.8072 108.459 97.9992 108.64C98.2019 108.821 98.4632 108.965 98.7832 109.072C99.1139 109.168 99.4712 109.248 99.8552 109.312C100.25 109.376 100.639 109.456 101.023 109.552C101.418 109.637 101.775 109.76 102.095 109.92C102.426 110.069 102.687 110.288 102.879 110.576C103.082 110.853 103.183 111.221 103.183 111.68C103.183 112.171 103.045 112.597 102.767 112.96C102.501 113.312 102.106 113.589 101.583 113.792C101.071 113.984 100.447 114.08 99.7112 114.08ZM109.996 105.52C110.678 105.52 111.276 105.653 111.788 105.92C112.31 106.176 112.716 106.571 113.004 107.104C113.302 107.637 113.452 108.309 113.452 109.12V114H112.316V109.232C112.316 108.347 112.092 107.68 111.644 107.232C111.206 106.773 110.588 106.544 109.788 106.544C109.19 106.544 108.668 106.667 108.22 106.912C107.782 107.147 107.441 107.493 107.196 107.952C106.961 108.4 106.844 108.944 106.844 109.584V114H105.708V102.128H106.844V107.904L106.62 107.472C106.886 106.864 107.313 106.389 107.9 106.048C108.486 105.696 109.185 105.52 109.996 105.52ZM120.384 114.08C119.574 114.08 118.843 113.899 118.192 113.536C117.552 113.163 117.046 112.656 116.672 112.016C116.299 111.365 116.112 110.624 116.112 109.792C116.112 108.949 116.299 108.208 116.672 107.568C117.046 106.928 117.552 106.427 118.192 106.064C118.832 105.701 119.563 105.52 120.384 105.52C121.216 105.52 121.952 105.701 122.592 106.064C123.243 106.427 123.75 106.928 124.112 107.568C124.486 108.208 124.672 108.949 124.672 109.792C124.672 110.624 124.486 111.365 124.112 112.016C123.75 112.656 123.243 113.163 122.592 113.536C121.942 113.899 121.206 114.08 120.384 114.08ZM120.384 113.072C120.992 113.072 121.531 112.939 122 112.672C122.47 112.395 122.838 112.011 123.104 111.52C123.382 111.019 123.52 110.443 123.52 109.792C123.52 109.131 123.382 108.555 123.104 108.064C122.838 107.573 122.47 107.195 122 106.928C121.531 106.651 120.998 106.512 120.4 106.512C119.803 106.512 119.27 106.651 118.8 106.928C118.331 107.195 117.958 107.573 117.68 108.064C117.403 108.555 117.264 109.131 117.264 109.792C117.264 110.443 117.403 111.019 117.68 111.52C117.958 112.011 118.331 112.395 118.8 112.672C119.27 112.939 119.798 113.072 120.384 113.072ZM128.909 114L125.741 105.6H126.829L129.709 113.392H129.213L132.173 105.6H133.149L136.077 113.392H135.581L138.509 105.6H139.549L136.365 114H135.293L132.477 106.672H132.813L129.981 114H128.909ZM150.615 105.52C151.298 105.52 151.895 105.653 152.407 105.92C152.93 106.176 153.335 106.571 153.623 107.104C153.922 107.637 154.071 108.309 154.071 109.12V114H152.935V109.232C152.935 108.347 152.711 107.68 152.263 107.232C151.826 106.773 151.207 106.544 150.407 106.544C149.81 106.544 149.287 106.667 148.839 106.912C148.402 107.147 148.06 107.493 147.815 107.952C147.58 108.4 147.463 108.944 147.463 109.584V114H146.327V102.128H147.463V107.904L147.239 107.472C147.506 106.864 147.932 106.389 148.519 106.048C149.106 105.696 149.804 105.52 150.615 105.52ZM161.148 114.08C160.273 114.08 159.505 113.899 158.844 113.536C158.182 113.163 157.665 112.656 157.292 112.016C156.918 111.365 156.732 110.624 156.732 109.792C156.732 108.96 156.908 108.224 157.26 107.584C157.622 106.944 158.113 106.443 158.732 106.08C159.361 105.707 160.065 105.52 160.844 105.52C161.633 105.52 162.332 105.701 162.94 106.064C163.558 106.416 164.044 106.917 164.396 107.568C164.748 108.208 164.924 108.949 164.924 109.792C164.924 109.845 164.918 109.904 164.908 109.968C164.908 110.021 164.908 110.08 164.908 110.144H157.596V109.296H164.3L163.852 109.632C163.852 109.024 163.718 108.485 163.452 108.016C163.196 107.536 162.844 107.163 162.396 106.896C161.948 106.629 161.43 106.496 160.844 106.496C160.268 106.496 159.75 106.629 159.292 106.896C158.833 107.163 158.476 107.536 158.22 108.016C157.964 108.496 157.836 109.045 157.836 109.664V109.84C157.836 110.48 157.974 111.045 158.252 111.536C158.54 112.016 158.934 112.395 159.436 112.672C159.948 112.939 160.529 113.072 161.18 113.072C161.692 113.072 162.166 112.981 162.604 112.8C163.052 112.619 163.436 112.341 163.756 111.968L164.396 112.704C164.022 113.152 163.553 113.493 162.988 113.728C162.433 113.963 161.82 114.08 161.148 114.08ZM167.676 114V105.6H168.764V107.888L168.652 107.488C168.887 106.848 169.281 106.363 169.836 106.032C170.391 105.691 171.079 105.52 171.9 105.52V106.624C171.857 106.624 171.815 106.624 171.772 106.624C171.729 106.613 171.687 106.608 171.644 106.608C170.759 106.608 170.065 106.88 169.564 107.424C169.063 107.957 168.812 108.72 168.812 109.712V114H167.676ZM177.903 114.08C177.028 114.08 176.26 113.899 175.599 113.536C174.937 113.163 174.42 112.656 174.047 112.016C173.673 111.365 173.487 110.624 173.487 109.792C173.487 108.96 173.663 108.224 174.015 107.584C174.377 106.944 174.868 106.443 175.487 106.08C176.116 105.707 176.82 105.52 177.599 105.52C178.388 105.52 179.087 105.701 179.695 106.064C180.313 106.416 180.799 106.917 181.151 107.568C181.503 108.208 181.679 108.949 181.679 109.792C181.679 109.845 181.673 109.904 181.663 109.968C181.663 110.021 181.663 110.08 181.663 110.144H174.351V109.296H181.055L180.607 109.632C180.607 109.024 180.473 108.485 180.207 108.016C179.951 107.536 179.599 107.163 179.151 106.896C178.703 106.629 178.185 106.496 177.599 106.496C177.023 106.496 176.505 106.629 176.047 106.896C175.588 107.163 175.231 107.536 174.975 108.016C174.719 108.496 174.591 109.045 174.591 109.664V109.84C174.591 110.48 174.729 111.045 175.007 111.536C175.295 112.016 175.689 112.395 176.191 112.672C176.703 112.939 177.284 113.072 177.935 113.072C178.447 113.072 178.921 112.981 179.359 112.8C179.807 112.619 180.191 112.341 180.511 111.968L181.151 112.704C180.777 113.152 180.308 113.493 179.743 113.728C179.188 113.963 178.575 114.08 177.903 114.08ZM184.479 110.64L184.255 102.8H185.599L185.359 110.64H184.479ZM184.927 114.08C184.692 114.08 184.49 114 184.319 113.84C184.159 113.669 184.079 113.472 184.079 113.248C184.079 113.013 184.159 112.821 184.319 112.672C184.49 112.512 184.692 112.432 184.927 112.432C185.172 112.432 185.37 112.512 185.519 112.672C185.679 112.821 185.759 113.013 185.759 113.248C185.759 113.472 185.679 113.669 185.519 113.84C185.37 114 185.172 114.08 184.927 114.08Z" fill="#334155"/>
</svg>
