<svg width="29" height="28" viewBox="0 0 29 28" fill="none" xmlns="http://www.w3.org/2000/svg">
<path d="M27.0167 10.7568C26.9564 10.6798 26.9205 10.6426 26.9205 10.6426C26.9205 10.6426 26.9307 10.6939 26.9513 10.7901C26.9718 10.8851 26.9936 11.0275 27.0218 11.2046C27.0475 11.3829 27.0783 11.5972 27.1027 11.8436C27.1258 12.0899 27.1514 12.3658 27.163 12.6674C27.1758 12.9689 27.1835 13.2935 27.1745 13.6361C27.1707 13.9774 27.1489 14.338 27.1181 14.7088C27.086 15.0796 27.0372 15.462 26.9782 15.8482C26.9525 16.042 26.9064 16.2357 26.8768 16.4308C26.8345 16.6245 26.7986 16.8208 26.7511 17.0159C26.5753 17.796 26.3431 18.5685 26.0928 19.2909C26.0287 19.4718 25.9658 19.6489 25.9042 19.8234C25.8388 19.9966 25.7721 20.166 25.713 20.3328C25.6502 20.4983 25.5809 20.6574 25.5206 20.8139C25.4898 20.8922 25.4603 20.9692 25.4308 21.0449C25.3987 21.1193 25.3666 21.1937 25.3358 21.2656C25.2755 21.4106 25.2177 21.5505 25.1639 21.6839C25.11 21.8173 25.0497 21.9405 25.0009 22.0599C24.8995 22.2972 24.8136 22.5089 24.7366 22.6796C24.6609 22.8515 24.607 22.9914 24.5672 23.0851C24.53 23.18 24.5107 23.2313 24.5107 23.2313C24.5107 23.2313 24.5505 23.1941 24.6262 23.1236C24.6994 23.0517 24.811 22.9491 24.9444 22.8118C25.083 22.677 25.2357 22.5038 25.4089 22.2998C25.4962 22.1984 25.5886 22.0894 25.6822 21.9726C25.7721 21.8533 25.867 21.7262 25.9658 21.5954C26.166 21.3336 26.3546 21.0308 26.5573 20.71C26.6536 20.547 26.7472 20.3777 26.846 20.2044C26.9448 20.0312 27.027 19.8465 27.1219 19.6617C27.2181 19.4782 27.2926 19.2819 27.3785 19.0868C27.4671 18.8918 27.5364 18.6891 27.6095 18.4838C27.7583 18.0757 27.8751 17.6485 27.9778 17.2199C28.0265 17.0056 28.0624 16.7875 28.1048 16.5732C28.1369 16.3563 28.1677 16.1408 28.1869 15.9252C28.2074 15.7109 28.2254 15.4979 28.228 15.2862C28.2382 15.0758 28.2369 14.8679 28.228 14.6639C28.2138 14.2571 28.1754 13.8658 28.1125 13.5014C28.0535 13.137 27.9675 12.7995 27.8738 12.4941C27.6852 11.8834 27.4465 11.4125 27.2554 11.1019C27.1604 10.9454 27.0719 10.8325 27.0141 10.7542" fill="#11112D"/>
<path d="M6.98243 17.6135C6.98243 17.6135 6.97949 17.612 6.97949 17.6164C6.98389 17.6194 6.98683 17.6194 6.9839 17.615L6.98243 17.6135Z" fill="#11112D"/>
<path d="M23.5139 0.083327L23.4485 0.10514L23.4331 0.198809L22.6234 5.72011C20.8553 3.70175 15.8806 -0.283648 5.73234 2.68551C5.4308 2.77405 5.30633 3.17053 5.50137 3.45154C5.60659 3.60295 5.77982 3.67994 5.94277 3.64016C15.683 1.25354 20.7565 4.37282 22.5888 5.95107L22.5195 6.42455C22.0204 6.08452 21.4712 5.82661 20.9092 5.6521C19.8891 5.33261 18.8305 5.23509 17.7899 5.26075C16.7467 5.29283 15.7151 5.44552 14.7053 5.6906C13.6942 5.93182 12.7074 6.27185 11.7438 6.67989C11.2639 6.88776 10.7892 7.11359 10.3234 7.35738C10.0911 7.48056 9.8576 7.60631 9.6292 7.73975L8.96326 8.14907L8.28834 8.60073L7.64292 9.06394L7.01547 9.54896C6.8076 9.7132 6.60614 9.88258 6.40084 10.0494C5.58734 10.723 4.81234 11.4403 4.0553 12.1755C3.29697 12.9082 2.56943 13.6755 1.85216 14.4454C1.80084 14.5006 1.75079 14.557 1.69946 14.6122C1.67508 14.2003 1.66354 13.7782 1.65841 13.365C1.65841 12.8363 1.6738 12.309 1.7046 11.7829C1.77517 10.7333 1.92016 9.69396 2.16524 8.6867C2.2897 8.18371 2.43342 7.68843 2.60664 7.20597C2.77986 6.72351 2.98259 6.25774 3.21099 5.80864C3.43939 5.35955 3.70628 4.93868 4.00012 4.55503C4.1002 4.42415 4.20669 4.30354 4.31576 4.18805C4.24647 4.35743 4.17463 4.52808 4.10149 4.70002C3.89105 5.20044 3.68575 5.70856 3.49841 6.22566C3.12245 7.25858 2.82349 8.32999 2.62332 9.42065C2.52195 9.96598 2.45266 10.5177 2.40775 11.072C2.36412 11.6251 2.34745 12.1807 2.36413 12.735C2.4116 12.1845 2.4809 11.6405 2.57713 11.1028C2.67337 10.5652 2.79782 10.0366 2.93897 9.5156C3.22254 8.47242 3.60748 7.47286 4.04631 6.50667C4.26572 6.02293 4.50181 5.54945 4.74561 5.0747C4.86622 4.83603 4.98941 4.59866 5.11131 4.34331C5.14082 4.27659 5.17161 4.21372 5.20112 4.14058C5.21524 4.10593 5.23063 4.07257 5.24731 4.02125C5.26399 3.97505 5.28068 3.92245 5.2871 3.89678C5.31276 3.80312 5.33714 3.69662 5.33586 3.55675C5.33457 3.48618 5.32559 3.40535 5.29736 3.31296C5.26913 3.22186 5.21268 3.11536 5.12671 3.03196C5.04202 2.94727 4.9368 2.89594 4.84826 2.87413C4.75844 2.85232 4.68146 2.85103 4.61474 2.85745C4.48386 2.87156 4.38633 2.90878 4.30036 2.94727C4.11816 3.0358 4.01807 3.11664 3.89746 3.20261C3.6665 3.37583 3.45607 3.56702 3.25975 3.76975C2.86711 4.17522 2.52709 4.62817 2.22427 5.10421C1.92017 5.58025 1.65585 6.08323 1.42232 6.60162C1.18879 7.12 0.987326 7.65507 0.819236 8.20296C0.649863 8.74957 0.507441 9.30645 0.390676 9.86975C0.280327 10.4343 0.194351 11.004 0.127628 11.575C0.00188178 12.7234 -0.0250583 13.8693 0.0211343 15.0305C0.0313994 15.3295 0.0532157 15.6015 0.0724626 15.8774L0.082722 16.0326V16.0454L0.0891439 16.1006C0.0929933 16.1327 0.0981239 16.1648 0.103256 16.1956C0.148166 16.4509 0.280329 16.7101 0.457401 16.8897C0.812828 17.2516 1.30554 17.344 1.73411 17.1566C1.788 17.1322 1.83292 17.1117 1.90477 17.0617C1.96508 17.0219 2.05104 16.9475 2.04078 16.9539L2.05874 16.9372L2.12161 16.8743L2.15498 16.8384L2.28971 16.696L2.55788 16.4124L3.09038 15.8466C3.79739 15.0921 4.51978 14.362 5.24474 13.6409C5.97228 12.9223 6.71778 12.2307 7.47611 11.5648C7.66729 11.4018 7.85719 11.235 8.05094 11.0746L8.63349 10.6011L9.22244 10.1431L9.80884 9.71577L10.4324 9.29875C10.639 9.16788 10.8469 9.037 11.0586 8.91125C11.4808 8.66104 11.9106 8.42494 12.3494 8.20681C13.2232 7.76285 14.1291 7.38946 15.053 7.07638C15.9781 6.76971 16.9238 6.52848 17.8823 6.39632C18.3609 6.32831 18.8433 6.28853 19.3258 6.28597C19.8082 6.27955 20.2907 6.31163 20.768 6.39119C21.339 6.48742 21.9087 6.65808 22.4399 6.92625L22.345 7.57166C22.3091 7.56781 22.2744 7.5614 22.2372 7.55755C21.638 7.49724 20.9797 7.4395 20.2792 7.48184C18.9883 7.55883 17.8143 7.86293 16.9597 8.29406C16.0769 8.73931 15.5265 9.3257 15.5175 9.94545V9.94802C15.5136 10.22 15.615 10.4728 15.8036 10.6999L15.8883 11.1888C15.8062 11.1234 15.7061 11.0554 15.5496 10.9707C15.2018 10.7821 14.7733 10.6217 14.2857 10.5267C13.7981 10.4369 13.2528 10.4087 12.6818 10.46C12.1121 10.5139 11.5154 10.6358 10.9226 10.8321C10.6236 10.9258 10.3285 11.0438 10.0334 11.1734C9.73698 11.2992 9.44699 11.4493 9.15829 11.6071C8.58344 11.9253 8.02786 12.3026 7.50306 12.7196C6.98083 13.1404 6.49067 13.6036 6.05055 14.1015C5.83114 14.3504 5.61942 14.6045 5.42824 14.8701C5.32944 14.9997 5.23962 15.1357 5.14596 15.2679C5.05742 15.4039 4.97017 15.5373 4.88933 15.6759C4.55828 16.2212 4.29651 16.7845 4.10661 17.3401C3.91414 17.8944 3.80508 18.4436 3.76402 18.9504C3.72296 19.4573 3.75248 19.9218 3.82818 20.3183C3.9026 20.7147 4.01937 21.0419 4.13228 21.2973C4.19131 21.4243 4.24262 21.5359 4.30165 21.6296C4.35554 21.7233 4.40045 21.8016 4.44279 21.8606C4.52619 21.9799 4.56982 22.0428 4.56982 22.0428C4.56982 22.0428 4.85211 22.3969 5.00352 22.5329C5.48854 22.9679 6.58048 23.6582 8.03683 22.8204C9.78702 21.8131 11.8144 20.2182 13.4658 18.7888C13.4298 18.8722 13.3952 18.9543 13.3618 19.0338C13.2374 19.3302 13.1116 19.6061 12.9589 19.855C12.8101 20.1053 12.633 20.3221 12.4277 20.4876C12.3251 20.5697 12.2147 20.6416 12.0992 20.7019L12.0107 20.7443L11.9196 20.7802C11.8875 20.7943 11.8618 20.7994 11.8336 20.811C11.8067 20.82 11.7797 20.8302 11.7361 20.8405L11.636 20.8662C11.6296 20.8687 11.6142 20.8713 11.5937 20.8713C11.55 20.8738 11.4782 20.8687 11.3781 20.8674C11.2819 20.8649 11.1407 20.8777 11.0175 20.9226C10.9033 20.9611 10.7956 21.0163 10.7006 21.0792C10.5107 21.2075 10.3708 21.3627 10.2631 21.518C10.2079 21.5975 10.163 21.672 10.1168 21.7579L10.0629 21.867L10.0141 21.9722C9.88839 22.2519 9.79087 22.4765 9.63817 22.6638C9.28916 23.0975 8.93632 23.494 8.56164 23.7917C8.37431 23.9405 8.18569 24.0676 7.99963 24.1664C7.8123 24.2626 7.62495 24.328 7.4466 24.3575C7.08989 24.414 6.7781 24.3293 6.5574 24.2036C6.33285 24.0817 6.18015 23.9418 6.08263 23.8456C5.98383 23.7468 5.93378 23.6916 5.93378 23.6916C5.93378 23.6916 5.94278 23.7083 5.96202 23.7391C5.98127 23.7699 6.00435 23.8173 6.04541 23.8751C6.06594 23.9046 6.08776 23.9367 6.11342 23.9726C6.14037 24.0073 6.16989 24.0445 6.20197 24.0842C6.23533 24.124 6.27382 24.1638 6.3136 24.2074C6.35851 24.2472 6.40342 24.2934 6.45859 24.3332C6.56124 24.4166 6.69083 24.4948 6.84865 24.5564C6.94104 24.704 7.05268 24.8233 7.181 24.9119C7.41196 25.3917 8.63348 26.2707 10.1681 26.204C11.9478 26.1257 13.9906 25.2891 17.7527 21.9773L17.804 22.275C17.8746 22.6856 18.1222 23.0321 18.4802 23.2297C19.1551 23.6018 20.3536 24.0688 21.715 23.716C22.6388 23.476 23.2098 23.0295 23.5332 22.6856C23.7539 22.4508 23.8912 22.1531 23.9258 21.84C23.9258 21.84 24.679 12.7144 24.892 9.97111C24.9074 9.77479 24.9074 9.6144 24.9048 9.50277C24.9048 9.49636 24.9061 9.49122 24.9061 9.48481L24.8997 9.40269C24.8971 9.36034 24.8946 9.33596 24.8946 9.33596L24.8779 9.10372C24.8497 8.95872 24.7894 8.82271 24.7008 8.6944C24.6238 8.58277 24.525 8.47627 24.4083 8.37747C24.4083 8.37747 23.9784 7.98611 23.1405 7.73719L24.6123 0.392561L24.6084 0.283496C24.6084 0.283496 24.3262 -0.187413 23.5101 0.0846104M4.5108 3.5837C4.5108 3.5837 4.51722 3.60038 4.51465 3.62476C4.50695 3.59653 4.50952 3.58498 4.5108 3.5837ZM0.894952 15.495C0.894952 15.495 0.89109 15.4988 0.897505 15.4924L0.894952 15.495ZM1.79698 15.8953L1.79955 15.9248V15.912L1.79569 15.8863C1.79569 15.8889 1.79569 15.8915 1.79569 15.894M5.18829 22.3302C4.85468 22.2673 4.56982 22.0441 4.56982 22.0441C4.56982 22.0441 4.55314 21.9671 4.52106 21.8234C4.48641 21.6784 4.45306 21.4718 4.42099 21.2049C4.39532 20.9393 4.37736 20.6185 4.40302 20.2554C4.4274 19.8935 4.49413 19.4906 4.61602 19.0672C4.73664 18.6438 4.90729 18.1972 5.13953 17.7481C5.25245 17.5223 5.38204 17.2965 5.52062 17.0707C5.6669 16.8474 5.81062 16.6177 5.97871 16.397C6.30462 15.9492 6.68186 15.5142 7.08605 15.0934C7.49665 14.6776 7.93162 14.2722 8.3974 13.9065C8.85676 13.5305 9.34563 13.1969 9.83706 12.8889C9.96153 12.8158 10.0847 12.7388 10.2105 12.6708C10.3336 12.5977 10.4594 12.5297 10.5838 12.4642C10.834 12.3321 11.0856 12.214 11.3345 12.1037C11.8349 11.8843 12.3302 11.7162 12.8088 11.5994C13.2874 11.4814 13.7455 11.4236 14.1715 11.4121C14.5962 11.4044 14.985 11.4493 15.325 11.5275C15.5726 11.584 15.7908 11.6584 15.9833 11.7367L16.3027 13.5908C15.9422 14.5403 14.5718 16.6267 9.96152 20.5005C7.46969 22.5945 5.7965 22.4444 5.18829 22.3315M16.3015 16.1353C16.2566 16.3367 16.1873 16.5407 16.0897 16.7409C15.9717 16.9873 15.8203 17.2298 15.6381 17.4671L15.6009 17.5159L15.5829 17.5403C15.5829 17.5403 15.5765 17.548 15.5739 17.5506C15.5572 17.5711 15.538 17.5916 15.5188 17.6109C15.4803 17.6506 15.4379 17.6866 15.393 17.7199C15.3045 17.7854 15.2069 17.8316 15.1235 17.8508C15.103 17.8559 15.0825 17.8585 15.0645 17.8611C15.0607 17.8611 15.0568 17.8611 15.053 17.8611H15.0017L14.9952 17.8598L14.9786 17.8572L14.9375 17.8508L14.8297 17.8316C14.7643 17.82 14.6809 17.8059 14.5757 17.8059C15.3314 17.1169 15.9383 16.524 16.3015 16.1365M14.4704 18.6091C14.4704 18.6091 14.4704 18.6091 14.4717 18.6091H14.473C14.4884 18.6014 14.4756 18.6078 14.4704 18.6091ZM14.4576 18.613H14.455C14.455 18.613 14.455 18.613 14.4576 18.613ZM13.6633 20.2015C13.8597 19.8871 14.0059 19.5638 14.1368 19.2597C14.2023 19.1083 14.2651 18.9607 14.3254 18.8324C14.355 18.7708 14.387 18.7143 14.4101 18.681L14.4255 18.6605L14.4499 18.6322C14.4576 18.6232 14.464 18.6181 14.4679 18.6143C14.4858 18.6143 14.5269 18.6168 14.5846 18.6271L14.7065 18.6463C14.7296 18.6502 14.7553 18.6528 14.7822 18.6553L14.8246 18.6592H14.8464L14.881 18.6617H14.9439C14.9798 18.6605 15.0171 18.6579 15.053 18.654C15.1159 18.6463 15.1749 18.6348 15.2326 18.6194C15.4662 18.5591 15.6689 18.4475 15.8434 18.314C15.9306 18.2473 16.0115 18.1741 16.0859 18.0946C16.1218 18.0535 16.1578 18.0138 16.1911 17.9701L16.2193 17.9329L16.2373 17.9085L16.272 17.8585C16.4721 17.5749 16.6518 17.2721 16.7826 16.959C16.7903 16.9398 16.8237 16.8885 16.8609 16.8294L16.9648 17.4299C15.4867 18.8196 14.2228 19.9449 13.1411 20.8572C13.3477 20.657 13.5209 20.4312 13.6633 20.2053M10.0873 23.0038L10.1283 22.9577L10.1656 22.914C10.1963 22.8768 10.2233 22.8409 10.2477 22.8075C10.2977 22.7395 10.3439 22.6689 10.3862 22.5997C10.4709 22.4611 10.5428 22.3238 10.6121 22.1968L10.6647 22.1031L10.7173 22.0133C10.7455 21.9684 10.784 21.9145 10.8199 21.8696C10.8944 21.7772 10.9752 21.7002 11.0535 21.6566C11.092 21.6335 11.1279 21.6193 11.1638 21.6091C11.1908 21.6014 11.2062 21.6014 11.2626 21.604C11.3152 21.6065 11.3948 21.6193 11.5051 21.6193C11.5603 21.6193 11.6245 21.6168 11.695 21.6027L11.8272 21.5744C12.1775 21.4949 12.5239 21.3409 12.8306 21.1176C11.3755 22.3276 10.2669 23.1309 9.42519 23.6595C9.43802 23.648 9.45212 23.6377 9.46624 23.6249C9.68052 23.435 9.88838 23.2258 10.0873 23.0038ZM7.18997 24.9247C7.4081 25.0735 7.67242 25.1428 7.97139 25.13C9.88453 25.053 16.0692 19.5638 17.1522 18.518L17.4601 20.3054C9.60995 27.2792 7.4312 25.2108 7.18997 24.9247ZM23.4588 21.6078C23.419 21.9068 22.8993 22.3969 22.6298 22.5317C20.9823 23.349 18.6599 23.3221 18.2313 20.997C17.9221 19.3225 16.6915 15.0638 16.168 11.0926C16.1654 11.072 16.1616 11.0541 16.159 11.0348C16.3682 11.1875 16.6222 11.3222 16.9148 11.4377C17.7565 11.7675 18.9216 11.9317 20.2099 11.856H20.2227C21.4802 11.7816 22.6273 11.4891 23.4664 11.0772C23.4883 11.0669 23.5075 11.0554 23.5293 11.0451L23.4575 21.6104L23.4588 21.6078ZM24.212 8.67644C24.3056 8.74059 24.3839 8.80988 24.4455 8.88302C24.5148 8.96771 24.561 9.05881 24.5815 9.15633L24.5969 9.41424C24.5674 9.82099 24.1119 10.2162 23.3985 10.5306C22.7081 10.8347 21.7676 11.0643 20.7424 11.1516H20.7321C19.6812 11.2401 18.7356 11.1606 18.0555 10.9604C17.3536 10.7538 16.9276 10.4164 16.9456 9.99677C16.9636 9.57463 17.4229 9.16146 18.1505 8.83426C18.8536 8.51733 19.8159 8.27738 20.8694 8.18885C21.3621 8.1465 21.8266 8.15677 22.259 8.17602L22.0563 9.55538L22.4053 9.49636L22.6029 8.19398C22.6504 8.19783 22.6979 8.20168 22.744 8.20681L22.4964 9.47967L22.8005 9.42835L23.0379 8.24659C23.8193 8.3826 24.2145 8.67515 24.2145 8.67515M22.8506 7.66533C22.7979 7.65378 22.7453 7.64224 22.6902 7.63197L22.8223 6.76201L22.8377 6.66449L23.6204 1.5153C23.6384 1.51145 23.6551 1.5076 23.6717 1.50375C23.8758 1.46526 23.9887 1.5153 24.0426 1.55636L22.8518 7.66533H22.8506Z" fill="#11112D"/>
<path d="M22.8496 12.6998C22.6379 12.6947 22.3338 12.7216 21.9912 12.8486C21.8205 12.9128 21.6409 13.0013 21.4638 13.122C21.4189 13.1527 21.3753 13.1835 21.3317 13.2195C21.288 13.2528 21.2444 13.29 21.1982 13.3324L21.1328 13.3927L21.0789 13.4479C21.0314 13.4979 20.9968 13.5377 20.9583 13.5839C20.8826 13.6711 20.8159 13.7622 20.7517 13.8431C20.6875 13.9239 20.6272 13.9983 20.5695 14.0625L20.5259 14.1087L20.4848 14.1472L20.454 14.1754H20.4527C20.4527 14.1754 20.4643 14.1664 20.4579 14.1716L20.4553 14.1741L20.4502 14.1793L20.4386 14.1882L20.395 14.2254C20.3308 14.2716 20.2641 14.3178 20.1897 14.355C20.0447 14.4372 19.874 14.4936 19.6982 14.5398C19.6097 14.5603 19.5199 14.5796 19.4288 14.595C19.339 14.6091 19.2427 14.6194 19.1568 14.6283L19.0926 14.6348L19.0143 14.6373C18.9682 14.6386 18.9232 14.6412 18.8783 14.6425C18.7859 14.6463 18.6961 14.6425 18.6076 14.6425C18.4305 14.6373 18.2586 14.6232 18.0995 14.6027C17.78 14.5629 17.5041 14.4962 17.3065 14.4397C17.2077 14.4102 17.1281 14.3897 17.073 14.3692C17.0178 14.3499 16.9883 14.3422 16.9883 14.3422C16.9883 14.3422 17.0063 14.3704 17.0435 14.4205C17.0794 14.468 17.1358 14.5449 17.2154 14.6283C17.3719 14.799 17.626 15.0223 17.9712 15.2122C18.1431 15.3071 18.3381 15.3944 18.5486 15.4637C18.6538 15.4996 18.7641 15.5278 18.8758 15.5535L18.9604 15.5727C18.9771 15.5766 18.9823 15.5779 19.0105 15.5817L19.049 15.5881L19.1285 15.601L19.2235 15.6125C19.3492 15.6279 19.4686 15.633 19.593 15.6305C19.7175 15.6305 19.8432 15.6202 19.9703 15.601C20.223 15.565 20.4784 15.4868 20.7222 15.361C20.8428 15.2969 20.9583 15.216 21.0674 15.1275L21.1469 15.0556L21.1918 15.0133L21.22 14.9825L21.2919 14.9004C21.3137 14.8734 21.3355 14.8465 21.3548 14.8195C21.4369 14.713 21.5023 14.6052 21.5588 14.5052C21.6165 14.4051 21.6666 14.314 21.7128 14.228C21.7346 14.1895 21.7564 14.151 21.7782 14.1125C21.8039 14.0728 21.8295 14.0317 21.8539 13.9932C21.8937 13.9252 21.9514 13.8521 22.0015 13.7853C22.1067 13.6493 22.2183 13.5261 22.3287 13.4171C22.5494 13.1977 22.7649 13.0309 22.924 12.9167C23.0036 12.8615 23.0677 12.8127 23.1139 12.7845C23.1588 12.7537 23.1832 12.737 23.1832 12.737C23.1832 12.737 23.1537 12.7306 23.096 12.7216C23.0395 12.7139 22.9561 12.7024 22.8496 12.6998Z" fill="#11112D"/>
<path d="M21.9606 16.8955C21.9388 16.916 21.917 16.9365 21.8951 16.9571L21.8644 16.9827L21.8259 17.0187C21.7797 17.052 21.7348 17.0944 21.6821 17.129C21.5821 17.2021 21.4743 17.2714 21.3575 17.3356C21.1227 17.4639 20.8584 17.5832 20.5799 17.6833C20.5119 17.709 20.4388 17.7321 20.3708 17.7552L20.2707 17.7872L20.2091 17.8052L20.1783 17.8142L20.1629 17.8193H20.1591C20.1591 17.8193 20.1488 17.8232 20.1668 17.8193H20.1655L20.1591 17.8219C20.0141 17.8642 19.8704 17.9014 19.7305 17.9374C19.5894 17.972 19.4508 18.0041 19.3173 18.031C19.1839 18.058 19.0543 18.0836 18.9337 18.1016C18.6899 18.144 18.4743 18.1671 18.3165 18.185C18.2395 18.1927 18.1728 18.203 18.1279 18.2043C18.083 18.2081 18.0586 18.212 18.0586 18.212C18.0586 18.212 18.074 18.2312 18.1022 18.2646C18.1317 18.2966 18.1728 18.3467 18.2382 18.4019C18.3011 18.457 18.3807 18.5186 18.4782 18.5802C18.5757 18.6418 18.6912 18.7021 18.8233 18.756C19.0877 18.8638 19.4187 18.9382 19.7806 18.9446C19.9615 18.9498 20.1488 18.9369 20.3387 18.9074L20.476 18.883C20.5209 18.8741 20.5761 18.8612 20.6261 18.8484C20.7249 18.8227 20.8186 18.7945 20.9136 18.7599C21.2908 18.6238 21.6552 18.4108 21.9426 18.1311C22.0876 17.9938 22.2108 17.8373 22.3096 17.6795C22.3596 17.5999 22.3994 17.5191 22.4379 17.4382C22.4533 17.3985 22.4687 17.36 22.4841 17.3228C22.4995 17.283 22.5123 17.247 22.5226 17.2086C22.6086 16.9134 22.6137 16.6825 22.624 16.5182C22.6278 16.4361 22.6265 16.3694 22.6291 16.3245C22.6304 16.2796 22.6291 16.2539 22.6291 16.2539C22.6291 16.2539 22.5444 16.3104 22.4199 16.4271C22.2955 16.5426 22.1364 16.7261 21.9619 16.8955" fill="#11112D"/>
<path d="M9.11735 16.5821C8.89537 16.7489 8.81839 17.0324 8.94413 17.2146C9.06988 17.3968 9.35089 17.4097 9.57287 17.2429C9.79485 17.0761 9.87184 16.7925 9.74609 16.6103C9.62034 16.4281 9.33933 16.4153 9.11735 16.5821Z" fill="#11112D"/>
<path d="M7.85319 15.8948C7.67356 16.0296 7.62094 16.2746 7.73514 16.4402C7.84934 16.6057 8.088 16.6313 8.26764 16.4966C8.44728 16.3619 8.49989 16.1168 8.3857 15.9513C8.2715 15.7858 8.03283 15.7601 7.85319 15.8961" fill="#11112D"/>
<path d="M9.00554 14.4729C8.8259 14.6077 8.77329 14.8528 8.88749 15.0183C9.00168 15.1838 9.24035 15.2095 9.41999 15.0747C9.59962 14.94 9.65224 14.6949 9.53804 14.5294C9.42384 14.3639 9.18518 14.3382 9.00554 14.4742" fill="#11112D"/>
<path d="M7.43891 17.8012C7.25414 18.0168 7.22463 18.3017 7.37219 18.4351C7.51975 18.5698 7.79048 18.5031 7.97525 18.2875C8.16002 18.072 8.18954 17.7884 8.04198 17.6537C7.89313 17.5189 7.62368 17.5857 7.43891 17.8012Z" fill="#11112D"/>
<path d="M10.8566 13.4317C10.6346 13.5985 10.5576 13.882 10.6834 14.0643C10.8091 14.2465 11.0901 14.2593 11.3121 14.0925C11.5328 13.9257 11.6111 13.6421 11.4853 13.4599C11.3596 13.2777 11.0786 13.2649 10.8566 13.4317Z" fill="#11112D"/>
<path d="M10.7814 15.416C10.5594 15.5829 10.4824 15.8664 10.6082 16.0486C10.7339 16.2308 11.015 16.2437 11.2369 16.0769C11.4576 15.91 11.5359 15.6265 11.4102 15.4443C11.2844 15.2621 11.0034 15.2492 10.7814 15.416Z" fill="#11112D"/>
<path d="M12.529 14.1351C12.3493 14.2698 12.2967 14.5149 12.4109 14.6804C12.5251 14.8459 12.7638 14.8716 12.9434 14.7368C13.1231 14.6021 13.1757 14.357 13.0615 14.1915C12.9473 14.026 12.7086 14.0003 12.529 14.1363" fill="#11112D"/>
<path d="M14.2525 12.7923C14.087 12.8564 13.9869 13.0091 14.0292 13.131C14.0703 13.2529 14.2384 13.3004 14.4026 13.2362C14.5681 13.1721 14.6682 13.0194 14.6259 12.8975C14.5848 12.7756 14.4167 12.7281 14.2525 12.7923Z" fill="#11112D"/>
<path d="M5.41454 20.1702C5.31061 20.3178 5.30804 20.4987 5.40941 20.5744C5.51077 20.6488 5.67887 20.5898 5.7828 20.4422C5.88674 20.2947 5.88931 20.1137 5.78794 20.038C5.68657 19.9636 5.51848 20.0226 5.41454 20.1702Z" fill="#11112D"/>
<path d="M8.65428 18.4046C8.54906 18.5521 8.54777 18.7331 8.64914 18.8088C8.7505 18.8832 8.9186 18.8242 9.02253 18.6766C9.12647 18.529 9.12904 18.3481 9.02767 18.2724C8.9263 18.198 8.75821 18.257 8.65428 18.4046Z" fill="#11112D"/>
<path d="M12.547 12.4473C12.3251 12.6141 12.2481 12.8977 12.3738 13.0799C12.4996 13.2621 12.7806 13.2749 13.0026 13.1081C13.2233 12.9413 13.3015 12.6577 13.1758 12.4755C13.05 12.2933 12.769 12.2805 12.547 12.4473Z" fill="#11112D"/>
<path d="M20.0993 9.1553C20.0942 8.96925 19.9107 8.83324 19.69 8.8512C19.4693 8.86917 19.2948 9.03597 19.2999 9.22203C19.305 9.40808 19.4885 9.54409 19.7092 9.52613C19.9299 9.50816 20.1044 9.34136 20.0993 9.1553Z" fill="#11112D"/>
<path d="M18.7827 10.2184C18.5621 10.2364 18.3876 10.4032 18.3927 10.5892C18.3978 10.7753 18.5813 10.9113 18.802 10.8933C19.0227 10.8754 19.1972 10.7085 19.1921 10.5225C19.1869 10.3364 19.0034 10.2004 18.7827 10.2184Z" fill="#11112D"/>
<path d="M20.5081 10.1007C20.3298 10.1161 20.1886 10.2649 20.1925 10.4343C20.1976 10.6037 20.3464 10.7294 20.5248 10.714C20.7032 10.6986 20.8443 10.5498 20.8404 10.3804C20.8353 10.211 20.6865 10.0866 20.5081 10.1007Z" fill="#11112D"/>
<path d="M22.246 9.92481C22.1074 9.89658 21.974 9.95817 21.9496 10.0647C21.9239 10.1699 22.0163 10.279 22.1549 10.3072C22.2935 10.3354 22.4269 10.2738 22.4513 10.1673C22.477 10.0621 22.3846 9.95304 22.246 9.92481Z" fill="#11112D"/>
<path d="M21.2525 8.90784C21.0318 8.92581 20.8573 9.09261 20.8624 9.27867C20.8675 9.46472 21.051 9.60073 21.2717 9.58277C21.4924 9.5648 21.6669 9.398 21.6618 9.21194C21.6567 9.02589 21.4732 8.88988 21.2525 8.90784Z" fill="#11112D"/>
<path d="M6.51198 19.2135C6.33619 19.4304 6.32849 19.7217 6.4953 19.8654C6.6621 20.0078 6.94055 19.9488 7.11634 19.7319C7.29213 19.5151 7.29983 19.2238 7.13302 19.0801C6.96622 18.9364 6.68777 18.9967 6.51198 19.2135Z" fill="#11112D"/>
<path d="M6.41784 18.3119C6.58722 18.0887 6.58338 17.7974 6.41144 17.6614C6.2395 17.5254 5.96362 17.5946 5.79424 17.8179C5.62615 18.0412 5.62873 18.3324 5.80067 18.4685C5.97261 18.6045 6.24847 18.5352 6.41784 18.3119Z" fill="#11112D"/>
<path d="M7.42356 5.19683C7.58267 4.90043 7.77257 4.65663 7.90473 4.4847C8.04203 4.30891 8.12029 4.20882 8.12029 4.20882C8.12029 4.20882 8.0895 4.21524 8.03305 4.22679C7.97787 4.2409 7.89318 4.26015 7.79053 4.29608C7.58652 4.36921 7.29396 4.48854 6.98216 4.75672C6.82946 4.89401 6.66778 5.06595 6.54204 5.32771C6.47916 5.45859 6.4304 5.61513 6.41372 5.80247C6.39576 5.98724 6.43041 6.2105 6.52921 6.41067C6.62673 6.6134 6.78712 6.76995 6.95008 6.86875C7.11432 6.9714 7.28369 7.02272 7.44408 7.0471C7.76743 7.09843 8.06127 7.04325 8.32944 6.96113C8.46289 6.91622 8.5912 6.86233 8.71309 6.80203L8.80292 6.75583L8.83627 6.73658L8.85552 6.72504L8.89274 6.70194L8.96972 6.65446L9.06339 6.59159C9.18528 6.50819 9.28665 6.42094 9.38802 6.32213C9.48811 6.22462 9.58049 6.1194 9.66261 6.00649C9.82685 5.78066 9.95388 5.52788 10.0244 5.25714C10.0963 4.99025 10.1079 4.69641 10.0296 4.42952C9.98724 4.29608 9.92309 4.17418 9.84097 4.07923C9.76013 3.98299 9.66517 3.91884 9.57664 3.88034C9.397 3.80335 9.24816 3.81105 9.13525 3.82645C9.07879 3.83543 9.03003 3.84698 8.98897 3.86238C8.94791 3.87521 8.91326 3.88804 8.88631 3.90087C8.83242 3.92397 8.80548 3.93937 8.80548 3.93937C8.80548 3.93937 8.83499 3.94835 8.89145 3.96503C8.94663 3.97914 9.02618 4.00737 9.11728 4.04843C9.2071 4.09077 9.30847 4.15493 9.37648 4.24347C9.44577 4.332 9.4663 4.43337 9.45603 4.545C9.4432 4.6592 9.39956 4.79521 9.31744 4.93122C9.24046 5.06852 9.12754 5.20453 8.99795 5.32899C8.93122 5.3893 8.86193 5.44961 8.78751 5.50478C8.71437 5.55867 8.62969 5.61256 8.55399 5.65619L8.49881 5.68827L8.42311 5.72676L8.38334 5.74601L8.36409 5.75627C8.36409 5.75627 8.34997 5.76397 8.37306 5.75114H8.37049L8.36666 5.75371L8.35767 5.75756L8.28967 5.78964C8.19985 5.8307 8.10874 5.86662 8.0202 5.89357C7.84441 5.95388 7.66735 5.97954 7.53005 5.97441C7.46205 5.97056 7.4043 5.95773 7.36581 5.94618C7.32603 5.93206 7.30936 5.9218 7.29268 5.9141C7.276 5.9064 7.26059 5.88715 7.24776 5.84096C7.23493 5.79605 7.23749 5.73061 7.24776 5.65748C7.27085 5.5112 7.34015 5.34696 7.41714 5.20068" fill="#11112D"/>
<path d="M5.21874 9.17947C5.30214 9.0024 5.40736 8.84586 5.47922 8.73679C5.51771 8.68033 5.54722 8.63671 5.56775 8.60591C5.58828 8.57383 5.59854 8.55715 5.59854 8.55715C5.59854 8.55715 5.57931 8.55972 5.54466 8.56357C5.51002 8.57127 5.45869 8.57383 5.39581 8.59436C5.26622 8.62901 5.08658 8.69188 4.8877 8.84842C4.79147 8.93054 4.68752 9.03191 4.60412 9.19744C4.56306 9.27956 4.53099 9.38092 4.51816 9.50282C4.50533 9.62343 4.52713 9.77228 4.59257 9.907C4.65673 10.043 4.76452 10.1469 4.86973 10.2124C4.97752 10.2804 5.08658 10.3138 5.18923 10.3304C5.39453 10.3638 5.58058 10.3304 5.74739 10.2778C5.91163 10.2214 6.06433 10.1457 6.20034 10.0469C6.34661 9.94421 6.46723 9.82104 6.56859 9.67861C6.66868 9.53618 6.74566 9.37707 6.78672 9.20513C6.82906 9.03576 6.83292 8.84842 6.77903 8.67777C6.72514 8.50455 6.59553 8.37367 6.48133 8.33132C6.36585 8.28513 6.2722 8.29796 6.20419 8.31079C6.1349 8.32362 6.08614 8.35057 6.05406 8.36597C6.02198 8.38265 6.00658 8.3942 6.00658 8.3942C6.00658 8.3942 6.02455 8.40061 6.05791 8.41344C6.08999 8.42371 6.13874 8.4468 6.19006 8.47503C6.24139 8.50326 6.29786 8.54946 6.32993 8.60206C6.3633 8.65596 6.362 8.70856 6.34917 8.76245C6.33505 8.81891 6.30555 8.88692 6.25679 8.95877C6.21059 9.03063 6.14388 9.1012 6.06946 9.16792C5.99503 9.23208 5.90522 9.29495 5.81797 9.34243C5.71917 9.39504 5.61779 9.44123 5.51642 9.47202C5.41762 9.50795 5.32396 9.5195 5.25596 9.52078C5.23158 9.5195 5.20719 9.51693 5.18409 9.51565C5.16998 9.51437 5.17126 9.5195 5.16741 9.52976C5.16356 9.54003 5.15586 9.54388 5.14688 9.5272C5.1379 9.51052 5.13405 9.47972 5.1379 9.43995C5.14304 9.36168 5.17768 9.26544 5.21746 9.1769" fill="#11112D"/>
<path d="M11.8223 5.1504C11.9185 4.98873 12.0186 4.84501 12.0879 4.74236C12.1585 4.63971 12.1983 4.57427 12.1983 4.57427C12.1983 4.57427 12.1803 4.57556 12.1469 4.57812C12.1149 4.58197 12.0648 4.58582 12.0058 4.59994C11.8852 4.62432 11.7171 4.67179 11.5259 4.78599C11.431 4.84501 11.3283 4.91815 11.2295 5.04005C11.1795 5.10036 11.132 5.17478 11.0922 5.28256C11.073 5.33645 11.0576 5.40061 11.055 5.47888C11.0524 5.55587 11.0653 5.64825 11.1025 5.73679C11.1397 5.82532 11.1974 5.9036 11.259 5.9562C11.3206 6.0101 11.3835 6.04346 11.4412 6.06784C11.5567 6.11403 11.6568 6.12558 11.7492 6.12686C11.9327 6.12943 12.0879 6.0858 12.2342 6.03447C12.3061 6.00625 12.3753 5.97417 12.4421 5.94081C12.478 5.92284 12.5024 5.91001 12.5447 5.88435L12.6307 5.82789C12.7667 5.73807 12.8745 5.64055 12.9771 5.52635C13.0772 5.41216 13.1619 5.28513 13.2261 5.14527C13.2877 5.00412 13.3338 4.85143 13.321 4.66794C13.3133 4.57812 13.2838 4.47676 13.2261 4.40105C13.1683 4.32535 13.0952 4.28429 13.0362 4.26889C12.9155 4.24066 12.8347 4.27274 12.7744 4.29455C12.7128 4.31765 12.6717 4.34844 12.6435 4.36769C12.6153 4.38822 12.6025 4.39977 12.6025 4.39977C12.6025 4.39977 12.6191 4.4049 12.6512 4.41517C12.682 4.42287 12.7282 4.44083 12.7795 4.46136C12.8296 4.48189 12.8899 4.52038 12.9155 4.56144C12.9271 4.58326 12.9245 4.59994 12.913 4.60764C12.9014 4.61533 12.8924 4.6179 12.8796 4.6333C12.8565 4.66281 12.8103 4.7244 12.75 4.78086C12.6897 4.83988 12.6153 4.89762 12.5345 4.95408C12.4549 5.00925 12.3574 5.06443 12.274 5.10806L12.1931 5.14912C12.1777 5.15425 12.1457 5.17093 12.1238 5.18119C12.0738 5.20429 12.0251 5.22482 11.9763 5.24278C11.8916 5.27743 11.8108 5.29796 11.744 5.31079C11.7671 5.2569 11.7954 5.20301 11.8249 5.15168M11.6979 5.48786C11.6927 5.47631 11.6979 5.44808 11.7043 5.41729C11.7222 5.4776 11.703 5.50583 11.6979 5.48786Z" fill="#11112D"/>
<path d="M15.4241 4.03042C15.4883 3.90339 15.5665 3.79305 15.6204 3.71734C15.6756 3.64035 15.709 3.5916 15.709 3.5916C15.709 3.5916 15.6961 3.59416 15.6705 3.59801C15.6461 3.60443 15.6089 3.60699 15.5652 3.62239C15.4741 3.64934 15.3471 3.69681 15.206 3.80716C15.138 3.8649 15.0648 3.93676 15.0045 4.05096C14.975 4.1087 14.9519 4.17799 14.9416 4.26267C14.9314 4.34736 14.9455 4.45257 14.9917 4.54624C15.0366 4.64119 15.1136 4.71433 15.188 4.75924C15.2637 4.80543 15.3394 4.82725 15.4125 4.83751C15.5563 4.85804 15.6859 4.83366 15.8039 4.79645C15.9194 4.75668 16.0285 4.7015 16.1234 4.6335C16.2273 4.56164 16.3133 4.47567 16.3865 4.37687C16.4583 4.27807 16.5148 4.16644 16.5468 4.04711C16.5789 3.92906 16.5866 3.79818 16.5507 3.67628C16.516 3.55182 16.4237 3.45943 16.3428 3.42992C16.262 3.39656 16.1953 3.40554 16.1478 3.41452C16.099 3.42351 16.0644 3.44147 16.0413 3.45173C16.0195 3.46457 16.0066 3.47098 16.0066 3.47098C16.0066 3.47098 16.0195 3.47611 16.0439 3.48381C16.0669 3.49023 16.1016 3.50563 16.1401 3.52359C16.1786 3.54284 16.2196 3.57363 16.2453 3.61084C16.271 3.64934 16.271 3.68911 16.2633 3.72889C16.2466 3.81358 16.1696 3.93676 16.058 4.03299C16.0028 4.08047 15.9374 4.12794 15.8719 4.16387C15.7988 4.20365 15.7244 4.23701 15.6499 4.26139C15.5768 4.28833 15.5062 4.29732 15.4523 4.2986C15.4267 4.2986 15.4061 4.29347 15.3933 4.29218C15.3805 4.28962 15.3805 4.29218 15.3766 4.29732C15.3741 4.30245 15.3677 4.30373 15.3612 4.28833C15.3561 4.27422 15.3548 4.24856 15.3587 4.22033C15.3664 4.1613 15.3933 4.09202 15.4254 4.02914" fill="#11112D"/>
<path d="M3.03227 20.8388C2.91166 20.4295 2.5896 20.1215 2.20338 19.9611L1.27825 19.5762C1.16405 19.6018 1.08962 19.7186 1.114 19.8328C1.1217 19.8674 1.13068 19.9059 1.13966 19.9496C5.08271 31.8596 16.899 27.0337 16.899 27.0337C16.899 27.0337 5.77304 30.085 3.03227 20.8388Z" fill="#11112D"/>
</svg>
