<svg width="18" height="18" viewBox="0 0 18 18" fill="none" xmlns="http://www.w3.org/2000/svg">
<path d="M17.4798 0.520287C17.3227 0.363245 17.1265 0.250902 16.9115 0.194811C16.6965 0.138721 16.4705 0.140908 16.2566 0.201146L1.69974 4.30691C1.45481 4.37598 1.23681 4.51817 1.07485 4.71447C0.912903 4.91076 0.814725 5.15182 0.793442 5.40541C0.77216 5.65899 0.828787 5.91304 0.955755 6.13358C1.08272 6.35413 1.27398 6.53066 1.50397 6.6396L7.59253 9.52366L11.7552 5.36098C11.8724 5.24377 12.0314 5.17791 12.1972 5.17791C12.3629 5.17791 12.5219 5.24377 12.6391 5.36098C12.7564 5.4782 12.8222 5.63718 12.8222 5.80295C12.8222 5.96873 12.7564 6.12771 12.6391 6.24492L8.47647 10.4076L11.3605 16.4962C11.4604 16.7104 11.6196 16.8915 11.8191 17.0182C12.0186 17.1449 12.2503 17.2119 12.4866 17.2112C12.5224 17.2112 12.5585 17.2097 12.5947 17.2067C12.8488 17.1868 13.0905 17.0891 13.2871 16.927C13.4836 16.7648 13.6254 16.546 13.6932 16.3004L17.799 1.74351C17.8592 1.52964 17.8613 1.30361 17.8052 1.08863C17.7491 0.873658 17.6368 0.677491 17.4798 0.520287Z" fill="#CCCCCC"/>
</svg>
