<svg width="20" height="20" viewBox="0 0 20 20" fill="none" xmlns="http://www.w3.org/2000/svg">
<path d="M13.7499 9.06281C13.7499 9.98991 13.475 10.8962 12.9599 11.667C12.4449 12.4379 11.7128 13.0387 10.8562 13.3935C9.99972 13.7483 9.05722 13.8411 8.14793 13.6602C7.23865 13.4794 6.40341 13.0329 5.74786 12.3774C5.0923 11.7218 4.64586 10.8866 4.46499 9.9773C4.28412 9.06801 4.37695 8.12551 4.73173 7.26898C5.08652 6.41246 5.68733 5.68037 6.45818 5.1653C7.22904 4.65023 8.13532 4.37531 9.06242 4.37531C10.3052 4.37672 11.4967 4.87103 12.3754 5.74981C13.2542 6.62858 13.7485 7.82004 13.7499 9.06281ZM17.9414 17.9423C17.8242 18.0595 17.6652 18.1254 17.4995 18.1254C17.3337 18.1254 17.1747 18.0595 17.0575 17.9423L13.6807 14.5655C12.2604 15.7579 10.4346 16.356 8.5841 16.2351C6.73357 16.1142 5.00117 15.2835 3.74815 13.9164C2.49514 12.5493 1.81825 10.7512 1.85864 8.89717C1.89904 7.04314 2.65359 5.27626 3.96496 3.96501C5.27633 2.65375 7.04327 1.89935 8.8973 1.85912C10.7513 1.81889 12.5493 2.49593 13.9164 3.74906C15.2834 5.0022 16.1139 6.73467 16.2346 8.58521C16.3554 10.4357 15.7572 12.2615 14.5646 13.6817L17.9414 17.0585C18.0586 17.1757 18.1245 17.3346 18.1245 17.5004C18.1245 17.6661 18.0586 17.8251 17.9414 17.9423ZM9.06242 15.0003C10.2367 15.0003 11.3847 14.6521 12.3611 13.9997C13.3375 13.3472 14.0986 12.4199 14.548 11.335C14.9973 10.2501 15.1149 9.05623 14.8858 7.90446C14.6567 6.7527 14.0912 5.69474 13.2609 4.86437C12.4305 4.03399 11.3725 3.4685 10.2208 3.2394C9.06901 3.0103 7.87517 3.12788 6.79024 3.57728C5.7053 4.02667 4.77799 4.7877 4.12557 5.76411C3.47315 6.74053 3.12492 7.88849 3.12492 9.06281C3.1267 10.637 3.75283 12.1462 4.86594 13.2593C5.97905 14.3724 7.48824 14.9985 9.06242 15.0003Z" fill="#CCCCCC"/>
</svg>
