<?xml version="1.0" encoding="UTF-8"?>
<svg version="1.1" viewBox="0 0 1600 1600" width="1280" height="1280"
    xmlns="http://www.w3.org/2000/svg">
    <path transform="translate(170 200)" d="m0 0c2.23-0.00104 4.46-0.00253 6.69-0.0044 6.12-0.00388 12.2-0.00157 18.4 0.00178 5.97 0.00228 11.9-1.78e-4 17.9-0.00248 12.4-0.00459 24.7-0.00446 37.1-0.00172 12.5 0.00275 25 0.00333 37.5 0.00126 1.19-1.94e-4 1.19-1.94e-4 2.4-3.91e-4 3.22-5.33e-4 6.45-0.00108 9.67-0.00165 30-0.00529 60-0.00565 90-0.00285 0.889 8.28e-5 1.78 1.66e-4 2.69 2.51e-4 1.33 1.24e-4 1.33 1.24e-4 2.7 2.51e-4 27.1 0.00252 54.2 0.00317 81.4 0.00198 1.82-7.75e-5 3.63-1.55e-4 5.45-2.31e-4 7.3-3.1e-4 14.6-6.29e-4 21.9-9.6e-4 20.4-9.17e-4 40.8-0.00149 61.2-0.00179 0.929-1.36e-5 1.86-2.73e-5 2.82-4.14e-5 29.6-4.09e-4 59.2 7.17e-4 88.8 0.00289 1.44 1.05e-4 1.44 1.05e-4 2.91 2.13e-4 15.6 0.00114 31.2 0.00236 46.8 0.00359 61.8 0.00486 124 0.00463 186-2.31e-4 15.6-0.00122 31.2-0.00243 46.7-0.00357 0.959-7.04e-5 1.92-1.41e-4 2.91-2.13e-4 29.6-0.00216 59.1-0.00307 88.7-0.00264 1.39 2.04e-5 1.39 2.04e-5 2.81 4.12e-5 20.4 3.12e-4 40.8 9.46e-4 61.2 0.00187 7.29 3.29e-4 14.6 6.42e-4 21.9 9.51e-4 1.81 7.74e-5 3.63 1.56e-4 5.44 2.36e-4 27.1 0.00119 54.2 1.78e-4 81.3-0.00235 1.33-1.24e-4 1.33-1.24e-4 2.69-2.51e-4 0.887-8.27e-5 1.77-1.65e-4 2.69-2.51e-4 29.9-0.00276 59.8-0.00174 89.8 0.00353 3.22 5.52e-4 6.43 0.00109 9.65 0.00161 0.789 1.3e-4 1.58 2.6e-4 2.39 3.95e-4 12.5 0.00197 25 6.02e-4 37.4-0.00216 12.3-0.00265 24.6-0.00171 36.8 0.00301 6.56 0.00243 13.1 0.00319 19.7-4.06e-4 5.98-0.00324 12-0.00184 17.9 0.00318 2.14 1e-3 4.29 3.54e-4 6.43-0.00221 9.94-0.011 19.9 0.0594 29.8 0.567 0.741 0.0377 1.48 0.0754 2.25 0.114 22.4 1.29 42.8 7.65 62.4 18.4 0.919 0.503 1.84 1.01 2.79 1.52 32.3 18.6 58 51 67.9 87 1.58 6.11 3 12.3 4.3 18.4 0.264 1.24 0.264 1.24 0.533 2.5 1.34 6.74 1.76 13.2 1.74 20 0.00786 1.66 0.00786 1.66 0.0159 3.35 0.0149 3.68 0.0157 7.36 0.0164 11 0.00763 2.65 0.016 5.3 0.0252 7.95 0.0227 7.18 0.0308 14.4 0.0358 21.5 0.00327 4.49 0.0098 8.98 0.017 13.5 0.0195 12.5 0.036 24.9 0.0389 37.4 1.88e-4 0.795 3.75e-4 1.59 5.68e-4 2.41 3.66e-4 1.61 7.3e-4 3.22 0.00109 4.83 1.83e-4 0.8 3.66e-4 1.6 5.54e-4 2.42 1.81e-4 0.801 3.61e-4 1.6 5.47e-4 2.43 0.00354 13 0.0306 26 0.068 38.9 0.0381 13.4 0.0574 26.7 0.0577 40.1 5.83e-4 7.49 0.00898 15 0.038 22.5 0.0246 6.37 0.0317 12.7 0.0168 19.1-0.00714 3.25-0.00369 6.49 0.0164 9.74 0.145 24.9 0.145 24.9-5.62 35.4-0.714 1.39-0.714 1.39-1.44 2.8-6.36 11.9-16.6 19.8-29.5 23.8-6.59 1.66-13.3 1.99-20.1 2.5-29.7 2.31-56.6 10.3-81 27.9-0.625 0.451-1.25 0.903-1.89 1.37-19.5 14.3-34.1 32.1-45.1 53.6-0.719 1.39-0.719 1.39-1.45 2.82-16.8 34.9-18.7 77.1-6.11 114 9.29 25.4 24.6 49.3 46.1 66 0.602 0.468 1.2 0.935 1.82 1.42 14.1 10.8 29.3 19.3 46.2 25 1.22 0.417 1.22 0.417 2.47 0.842 13.6 4.39 27.3 5.94 41.4 7 15.4 1.18 28.2 4.24 39.6 15.3 5.21 6.43 8.97 13.3 12 21 0.346 0.822 0.692 1.64 1.05 2.49 1.3 4.81 1.24 9.35 1.23 14.3 0.00786 1.64 0.00786 1.64 0.0159 3.3 0.015 3.65 0.0157 7.31 0.0164 11 0.00762 2.62 0.016 5.24 0.0252 7.86 0.0228 7.13 0.0308 14.3 0.0358 21.4 0.00326 4.46 0.00979 8.92 0.017 13.4 0.0196 12.4 0.036 24.7 0.0389 37.1 1.88e-4 0.792 3.75e-4 1.58 5.68e-4 2.4 3.66e-4 1.6 7.3e-4 3.21 0.00109 4.81 1.83e-4 0.797 3.66e-4 1.59 5.54e-4 2.41 1.81e-4 0.798 3.61e-4 1.6 5.47e-4 2.42 0.00353 12.9 0.0305 25.8 0.068 38.6 0.0383 13.3 0.0574 26.5 0.0577 39.8 5.81e-4 7.43 0.00883 14.9 0.038 22.3 0.0248 6.34 0.0316 12.7 0.0168 19-0.00707 3.22-0.00391 6.44 0.0164 9.66 0.266 45-14.1 86-45.4 119-26 26.2-63.3 41.6-100 42.5-0.751 0.0205-1.5 0.0411-2.28 0.0623-2.5 0.0658-5.01 0.124-7.51 0.181-0.887 0.021-1.77 0.042-2.69 0.0636-23.5 0.544-47 0.512-70.5 0.486-5.91-0.00537-11.8-0.00585-17.7-0.00655-12.2-0.00163-24.4-0.00802-36.6-0.0172-12.3-0.00925-24.7-0.0162-37-0.0206-0.784-2.8e-4 -1.57-5.6e-4 -2.37-8.48e-4 -3.19-0.00113-6.38-0.00226-9.58-0.00336-34.9-0.0121-69.9-0.0327-105-0.0556-0.881-5.79e-4 -1.76-0.00116-2.67-0.00175-1.78-0.00117-3.57-0.00234-5.35-0.00352-18.7-0.0123-37.5-0.0233-56.2-0.0339-60.1-0.0343-120-0.0704-180-0.114-2.87-0.00208-5.74-0.00416-8.6-0.00624-5.75-0.00417-11.5-0.00834-17.3-0.0125-6.73-0.00489-13.5-0.00977-20.2-0.0147-1.93-0.0014-3.85-0.0028-5.78-0.00419-61-0.0443-122-0.0776-183-0.102-45.5-0.0185-91.1-0.038-137-0.069-0.917-6.22e-4 -1.83-0.00124-2.78-0.00189-20.1-0.0137-40.3-0.0283-60.4-0.0436-7.2-0.00549-14.4-0.0109-21.6-0.0163-1.79-0.00134-3.58-0.00268-5.37-0.00402-28.5-0.0213-57-0.0337-85.5-0.0415-28.7-0.0079-57.4-0.0253-86.1-0.0558-3.97-0.00421-7.94-0.00833-11.9-0.0124-0.778-7.98e-4 -1.56-0.0016-2.36-0.00242-12.3-0.0123-24.6-0.0147-36.9-0.0128-12.1 0.00163-24.2-0.00745-36.3-0.0278-6.47-0.0104-12.9-0.0162-19.4-0.00872-5.89 0.00671-11.8-5.02e-4 -17.7-0.0185-2.11-0.00406-4.22-0.0032-6.33 0.0034-39 0.112-75.1-10.9-104-37.4-0.893-0.762-1.79-1.52-2.71-2.31-6.21-5.35-11.3-11.2-16.3-17.7-0.706-0.844-1.41-1.69-2.14-2.56-12.1-15-20-32.9-24.9-51.4-0.219-0.818-0.438-1.64-0.664-2.48-4.22-16.1-5.05-31.5-4.98-48.1-0.00679-2.68-0.0155-5.36-0.0266-8.05-0.022-6.47-0.0175-12.9-0.00294-19.4 0.0114-5.26 0.0128-10.5 0.00738-15.8-7.66e-4 -0.754-0.00153-1.51-0.00232-2.28-0.0016-1.53-0.00322-3.06-0.00486-4.59-0.0142-14.3 0.00203-28.6 0.029-42.9 0.0224-12.2 0.0184-24.5-0.00459-36.7-0.0268-14.3-0.0373-28.5-0.0219-42.8 0.00159-1.52 0.00316-3.04 0.00472-4.57 7.71e-4 -0.749 0.00154-1.5 0.00234-2.27 0.0043-5.25-0.00293-10.5-0.0147-15.8-0.0141-6.4-0.0101-12.8 0.0164-19.2 0.0131-3.26 0.0157-6.52 0.00175-9.78-0.0974-25.1-0.0974-25.1 5.66-35.4 0.543-1 1.09-2 1.65-3.03 6.45-11.4 16-18.8 28.4-23 7.59-1.78 15.2-2.39 22.9-2.88 39.6-2.9 76.4-19 103-48.8 5.68-6.79 10.8-14 15.6-21.4 0.911-1.38 0.911-1.38 1.84-2.79 19.6-31.6 25.5-73.2 17.2-109-8.92-36.7-30-70.1-62-91-0.964-0.637-1.93-1.27-2.92-1.93-23.3-14.9-47.9-21.9-75.3-23.7-17.5-1.18-31.2-4.98-43.7-18-8.93-10.4-12.7-22.5-12.6-36.1-0.00765-1.11-0.0153-2.22-0.0232-3.37-0.0205-3.69-0.0127-7.38-0.00474-11.1-0.0087-2.66-0.0189-5.32-0.031-7.98-0.0254-6.46-0.0291-12.9-0.0244-19.4 0.00358-5.26 3.74e-5 -10.5-0.00845-15.8-0.00179-1.13-0.00179-1.13-0.00361-2.28-0.00242-1.53-0.00485-3.05-0.00728-4.58-0.0217-14.3-0.0174-28.6-0.00523-42.9 0.0103-13-0.0121-26-0.0502-39.1-0.039-13.4-0.0552-26.8-0.0478-40.3 0.0038-7.52-8.91e-4 -15-0.0294-22.5-0.0241-6.41-0.0264-12.8-0.00242-19.2 0.0116-3.26 0.0111-6.51-0.01-9.77-0.264-44.1 14.9-82 44.8-114 0.55-0.605 1.1-1.21 1.67-1.83 33-34.8 78.9-42.3 125-42.3zm-57.1 115c-13 13.9-13.7 29.5-13.6 47.4 0.00113 2.11 4.91e-4 4.22-0.00177 6.33-0.00114 5.69 0.0223 11.4 0.0503 17.1 0.0251 5.96 0.0274 11.9 0.0321 17.9 0.0124 11.3 0.0452 22.6 0.0854 33.8 0.0448 12.8 0.0667 25.7 0.0868 38.5 0.0417 26.4 0.112 52.8 0.201 79.2 3.68 1.24 7.35 2.41 11.1 3.45 35 9.82 66.6 24.5 94.9 47.6 1.02 0.813 2.03 1.63 3.08 2.46 13.2 10.7 25.7 22.9 35.9 36.5 0.613 0.79 0.613 0.79 1.24 1.6 11.8 15.2 21.7 31.9 29.8 49.4 0.324 0.698 0.648 1.4 0.982 2.12 9.28 20.2 15.9 41.8 19 63.9 0.176 1.21 0.352 2.43 0.533 3.68 1.54 11.3 1.83 22.5 1.78 33.9-0.00182 0.922-0.00365 1.84-0.00552 2.79-0.0467 14.1-0.591 27.8-3.31 41.6-0.161 0.868-0.322 1.74-0.488 2.63-8.14 43-27.6 84.8-57.4 117-1.9 2.06-3.73 4.17-5.55 6.3-7.48 8.55-15.7 16-24.6 23-1.01 0.842-2.03 1.68-3.07 2.55-27.2 22.4-59.2 36.1-92.7 45.5-0.665 0.187-1.33 0.375-2.02 0.568-1.83 0.515-3.67 1.02-5.51 1.53-2.57 0.569-2.57 0.569-3.67 1.83-0.107 2.73-0.148 5.43-0.147 8.16-0.00368 0.866-0.00735 1.73-0.0111 2.62-0.0111 2.92-0.0149 5.85-0.0187 8.77-0.00626 2.09-0.0129 4.17-0.0199 6.26-0.0174 5.69-0.028 11.4-0.0362 17.1-0.00515 3.56-0.0112 7.11-0.0175 10.7-0.0191 11.1-0.0333 22.3-0.0416 33.4-0.00976 12.8-0.036 25.7-0.0765 38.5-0.0302 9.93-0.045 19.9-0.0483 29.8-0.00235 5.93-0.0113 11.9-0.0365 17.8-0.0234 5.58-0.0275 11.2-0.0172 16.8 4.94e-4 2.04-0.00577 4.09-0.0196 6.13-0.114 17.8 2.05 31.3 14.7 44.8 11.9 11.4 24.7 14.5 40.8 14.5 1.23 0.00485 2.46 0.0097 3.72 0.0147 3.42 0.0125 6.84 0.0205 10.3 0.0267 3.73 0.0078 7.46 0.0213 11.2 0.034 7.42 0.0243 14.8 0.0432 22.3 0.0604 6.2 0.0144 12.4 0.0311 18.6 0.0491 1.34 0.00391 1.34 0.00391 2.71 0.00789 1.83 0.00532 3.66 0.0106 5.49 0.016 19.7 0.0572 39.5 0.105 59.2 0.152 1.03 0.00241 2.06 0.00483 3.13 0.00731 1.04 0.00242 2.07 0.00484 3.14 0.00733 10.5 0.0247 21.1 0.0512 31.6 0.0778 115 0.289 229 0.454 604 0.519 37.2-0.00461 74.4-0.00363 112 9.09e-4 44.1 0.00537 88.3 0.00748 132 0.00439 4.7-3.2e-4 9.4-6.33e-4 14.1-9.43e-4 1.16-7.91e-5 2.31-1.58e-4 3.5-2.4e-4 17.2-0.00112 34.3 1.59e-4 51.5 0.00272 19.3 0.00287 38.7 0.00211 58-0.00328 9.8-0.00264 19.6-0.0038 29.4-3.51e-4 49.4 0.0256 49.4 0.0256 98.7-0.405 2.43-0.0317 4.85-0.059 7.28-0.0814 19.1-0.187 34.9-1.12 49.5-15 10.1-10.8 14.3-22.9 14.2-37.5 8.54e-4 -0.871 0.00171-1.74 0.00259-2.64 0.00164-2.91-0.00385-5.82-0.00932-8.73-2.82e-4 -2.09-1.24e-4 -4.18 4.43e-4 -6.27 2.87e-4 -5.67-0.00559-11.3-0.0126-17-0.00625-5.93-0.00684-11.9-0.00803-17.8-0.00311-11.2-0.0113-22.4-0.0213-33.7-0.0112-12.8-0.0167-25.5-0.0217-38.3-0.0105-26.3-0.028-52.6-0.0503-78.8-1.44-0.483-2.88-0.965-4.32-1.45-1.2-0.403-1.2-0.403-2.43-0.814-2.47-0.814-4.95-1.57-7.45-2.28-18.8-5.48-36.5-12.3-53.8-21.5-0.973-0.512-0.973-0.512-1.97-1.03-14.4-7.61-27.7-16.7-39.9-27.5-2.57-2.27-4.94-4.14-8.11-5.48v-2c-1.55-1.53-1.55-1.53-3.56-3.12-3.76-3.17-6.89-6.57-9.99-10.4-0.477-0.496-0.954-0.993-1.45-1.5h-2c-0.25-0.574-0.5-1.15-0.758-1.74-1.42-2.58-3.07-4.33-5.12-6.45-40.4-44.1-60.6-110-58.3-169 1.92-35.8 10.2-69.9 26.2-102 0.366-0.744 0.732-1.49 1.11-2.26 9.41-18.9 21.6-35.8 35.4-51.8 1.43-1.67 2.85-3.34 4.25-5.04 3.06-3.71 6.36-6.85 10-9.95 1.52-1.32 3.02-2.67 4.48-4.05 13.1-12.4 27.9-23.2 43.7-31.9 0.823-0.46 1.65-0.919 2.49-1.39 22.2-12.3 45.7-21.3 70.5-26.6 1.8-1.8 1.13-4.27 1.14-6.67-0.00232-1.23-0.00232-1.23-0.00469-2.49 0.00227-0.865 0.00453-1.73 0.00687-2.62 0.00637-2.92 0.00551-5.84 0.00469-8.77 0.00299-2.09 0.00639-4.17 0.0102-6.26 0.00887-5.68 0.0112-11.4 0.0118-17.1 9.47e-4 -4.74 0.00462-9.48 0.00817-14.2 0.00816-11.2 0.0106-22.4 0.00987-33.6-6e-4 -11.5 0.00994-23.1 0.0257-34.6 0.0131-9.9 0.0184-19.8 0.0178-29.7-2.55e-4 -5.92 0.0026-11.8 0.0132-17.8 0.00969-5.57 0.00976-11.1 0.00248-16.7-0.00105-2.04 0.00131-4.09 0.00736-6.13 0.00773-2.79 0.00307-5.59-0.00463-8.38 0.00514-0.805 0.0103-1.61 0.0156-2.44-0.0771-12.7-5.51-25.7-14.3-34.9-17.4-15.6-38-15-60.1-15-2.22-0.00179-4.44-0.00445-6.66-0.0079-6.09-0.00694-12.2-0.00147-18.3 0.00606-5.94 0.00537-11.9 0.00125-17.8-0.00256-12.3-0.00755-24.6-0.00566-36.9 0.00143-12.5 0.00714-24.9 0.0099-37.4 0.00736-0.788-1.58e-4 -1.58-3.16e-4 -2.39-4.78e-4 -4.02-8.24e-4 -8.03-0.00172-12-0.00263-29-0.00647-58.1-0.00313-87.1 0.00559-28.8 0.00862-57.5 0.0135-86.3 0.0133-1.81-7.92e-6 -3.61-1.56e-5 -5.42-2.32e-5 -7.26-3.74e-5 -14.5-1.04e-4 -21.8-2.06e-4 -20.3-2.78e-4 -40.6 1.11e-4 -60.9 9.89e-4 -1.39 5.95e-5 -1.39 5.95e-5 -2.8 1.2e-4 -29.5 0.00131-58.9 0.00548-88.4 0.0117-0.955 2.03e-4 -1.91 4.06e-4 -2.89 6.15e-4 -15.5 0.00331-31 0.0068-46.5 0.0103-61.5 0.0139-123 0.0205-185 0.0198-1.94-2.04e-5 -3.89-4.06e-5 -5.83-6.06e-5 -3.89-4.02e-5 -7.77-8.1e-5 -11.7-1.22e-4 -8.71-9.14e-5 -17.4-1.76e-4 -26.1-2.47e-4 -1.93-1.58e-5 -3.86-3.22e-5 -5.79-4.93e-5 -51.5-4.45e-4 -103 0.00402-155 0.0104-0.9 1.1e-4 -1.8 2.2e-4 -2.73 3.34e-4 -12.2 0.0015-12.2 0.0015-24.4 0.00302-19.8 0.0025-39.6 0.00444-59.4 0.00481-1.34 2.63e-5 -1.34 2.63e-5 -2.7 5.31e-5 -3.59 6.92e-5 -7.19 1.34e-4 -10.8 1.97e-4 -33.3 5.86e-4 -66.7 0.00435-100 0.0145-3.2 9.58e-4 -6.39 0.0019-9.59 0.00283-0.785 2.31e-4 -1.57 4.61e-4 -2.38 6.99e-4 -12.4 0.00356-24.8 0.0038-37.3 0.00267-12.2-0.00104-24.4 0.0015-36.6 0.00785-6.53 0.0033-13.1 0.00493-19.6 0.00224-5.95-0.00242-11.9-2.23e-4 -17.8 0.00562-2.14 0.0013-4.27 9.34e-4 -6.41-0.00132-32.9-0.372-32.9-0.372-60.8 15.9z" fill="#F15B25"/>
    <path transform="translate(903,383)" d="m0 0c8.06 1.34 15.5 4.27 23.1 7.19 1.38 0.525 2.76 1.05 4.15 1.57 2.21 0.839 4.42 1.68 6.64 2.52 5.9 2.25 11.8 4.46 17.7 6.67 1.79 0.669 3.58 1.34 5.38 2.01 2.62 0.979 5.25 1.96 7.87 2.94 9.47 3.53 18.9 7.11 28.2 11.1-2.01 7.03-4.35 13.9-6.92 20.7-0.377 1.01-0.753 2.02-1.14 3.06-1.23 3.28-2.46 6.56-3.69 9.84-0.86 2.3-1.72 4.6-2.58 6.9-2.15 5.76-4.31 11.5-6.47 17.3-1.44 3.83-2.87 7.66-4.31 11.5-3.06 8.18-6.13 16.4-9.2 24.5-3.03 8.07-6.06 16.1-9.08 24.2-1.55 4.15-3.11 8.29-4.66 12.4-0.644 1.72-1.29 3.43-1.93 5.15-37 98.7-74 197-188 502-0.723 1.93-1.45 3.86-2.17 5.78-1.88 5-3.75 10-5.63 15-3.6 9.59-7.19 19.2-10.8 28.8-14 37.4-28.1 74.8-42.3 112-3.73-0.707-7.07-1.69-10.6-3.07-1.07-0.417-2.15-0.834-3.25-1.26-1.14-0.445-2.27-0.891-3.44-1.35-2.38-0.922-4.75-1.84-7.13-2.77-1.14-0.444-2.28-0.888-3.46-1.35-12.6-4.89-25.3-9.5-38.1-14.1-9.03-3.31-18-6.65-27-10.1 0.747-4.71 2.35-8.99 3.99-13.4 0.452-1.24 0.452-1.24 0.913-2.5 0.986-2.69 1.98-5.38 2.97-8.07 0.692-1.88 1.38-3.76 2.07-5.65 4.15-11.3 8.36-22.5 12.6-33.8 4.43-11.6 8.8-23.3 13.2-34.9 0.579-1.55 0.579-1.55 1.17-3.12 1.94-5.19 3.89-10.4 5.83-15.6 3.06-8.17 6.12-16.3 9.19-24.5 1.55-4.12 3.09-8.25 4.64-12.4 0.588-1.57 1.18-3.14 1.76-4.7 0.28-0.746 0.559-1.49 0.847-2.26 36.2-96.4 72.3-193 121-323 0.758-2.02 1.52-4.04 2.27-6.06 1.91-5.11 3.83-10.2 5.74-15.3 3.61-9.64 7.23-19.3 10.8-28.9 5.79-15.5 11.6-31 17.6-46.4 5.36-13.8 10.5-27.7 15.6-41.7 5.03-13.8 10.1-27.6 15.4-41.4 4.43-11.6 8.8-23.3 13.2-34.9 0.387-1.03 0.773-2.06 1.17-3.13 1.56-4.16 3.12-8.33 4.68-12.5 2.48-6.61 4.95-13.2 7.43-19.8 0.951-2.53 1.9-5.06 2.85-7.6 0.614-1.64 1.23-3.27 1.84-4.91 3.37-8.98 6.73-18 10.1-27 0.305-0.824 0.61-1.65 0.924-2.5 1.45-3.93 2.9-7.85 4.34-11.8 0.511-1.38 1.02-2.76 1.53-4.15 0.666-1.81 0.666-1.81 1.35-3.66 1.07-2.69 1.07-2.69 2.07-3.69z" fill="#F15B25"/>
    <path transform="translate(667 558)" d="m0 0c5.41 4.98 9.95 10.4 14.4 16.2 0.717 0.866 1.43 1.73 2.17 2.62 15.9 19.9 25.5 45.3 28.8 70.4 0.193 1.38 0.193 1.38 0.391 2.79 4.33 37.8-6.05 77.7-29.7 108-4.06 5.02-8.31 9.83-12.7 14.5-0.583 0.624-1.17 1.25-1.77 1.89-8.58 8.91-18.7 15.7-29.2 22.1-1.12 0.682-2.24 1.36-3.39 2.07-15.6 9.12-33.8 14.5-51.6 16.9-1.21 0.182-2.42 0.364-3.67 0.551-16.3 1.98-33.3 0.942-49.3-2.55-1.93-0.418-1.93-0.418-3.9-0.844-38.6-9.4-71.2-34.6-92.1-68.2-20.2-33.5-26.8-73.5-17.6-112 0.196-0.777 0.392-1.55 0.594-2.35 0.182-0.723 0.364-1.45 0.551-2.19 5.67-21.6 16.6-43 31.4-59.8h2c0.263-0.587 0.526-1.17 0.797-1.78 11.8-21.8 46.8-36.8 69.1-43.8 6.97-2.07 13.9-3.44 21.1-4.47 0.826-0.13 1.65-0.26 2.5-0.395 45-5.87 87.7 10.8 121 40.2zm-139 72.2v2h-2c-10.2 12-14.2 25.4-13 41 2.11 14.2 9.22 26.2 20.7 34.7 12.4 8.3 26.1 11.5 40.8 8.63 14.7-4.19 25.6-12.3 33.5-25.3 5.82-12.5 8.32-25.6 4-39-5.58-14.3-13.9-25.2-28-32-19-7.78-40.9-4.35-56 10z" fill="#F15B25"/>
    <path transform="translate(1078 827)" d="m0 0c37.8-0.992 75.6 13.1 103 39 1.42 1.36 2.84 2.73 4.26 4.09 0.84 0.766 1.68 1.53 2.55 2.32 27.1 25.4 41.2 64.1 42.6 101 0.712 42.8-16.2 81.1-45.5 112-20.3 19.6-45.4 32.2-72.7 38.2-0.703 0.165-1.41 0.33-2.13 0.5-37.6 8.63-77.9-0.0562-110-20.2-7.06-4.53-13.4-9.58-19.5-15.3-0.604-0.562-1.21-1.12-1.83-1.7-26.6-24.9-45.6-59.6-47.3-96.7-0.0461-3.82-0.085-7.64-0.0889-11.5-0.00151-1.04-0.00151-1.04-0.00305-2.1 0.0108-11 0.738-21.4 3.25-32.1 0.267-1.24 0.534-2.47 0.809-3.75 9.17-38.5 34.8-71.5 68.3-92.1 23.1-13.8 47.8-20 74.5-21.3zm-36.6 117c-9.26 12.5-12.2 25.4-11 40.7 2.12 11.9 8.33 23.6 18 31 14 9.14 27.7 13.7 44.4 10.3 13.8-4.25 25.1-12.9 32.6-25.3 0.971-2.3 1.87-4.64 2.69-7 0.625-1.76 0.625-1.76 1.26-3.56 3.79-12.4 2.34-25.5-3.51-37.1-8.25-13.8-19.3-21.7-34.4-26.3-18.2-4.47-37.9 3.38-50 17.3z" fill="#F15B25"/>
</svg>
